<svg width="626" height="160" viewBox="0 0 626 160" fill="none" xmlns="http://www.w3.org/2000/svg">
<circle cx="63.5" cy="95.832" r="61.2676" stroke="white" stroke-width="4.46483"/>
<path d="M110.956 97.2324C110.956 123.1 89.9865 144.069 64.1191 144.069C38.3119 144.069 16.3528 123.159 16.3525 97.2324V97.1484L16.3584 97.0654C17.3239 84.1919 22.5433 71.4614 30.5361 57.1523C38.5159 42.8667 49.4323 26.7218 61.9268 7.13184L63.8184 4.16602L65.6973 7.13965C78.6595 27.6632 89.5725 44.0375 97.3975 58.208C105.235 72.4016 110.146 84.6718 110.952 97.0869L110.956 97.1592V97.2324Z" fill="url(#paint0_linear_368_520)" stroke="white" stroke-width="4.46483"/>
<path d="M19.5146 107.148C55.1366 95.0674 68.4561 124.804 107.795 110.865" stroke="white" stroke-width="4.46483"/>
<path d="M56.8865 133.032C52.0981 132.704 47.4682 131.181 43.4192 128.604C39.3702 126.027 36.0311 122.477 33.7065 118.278" stroke="white" stroke-width="4.46483" stroke-linecap="round"/>
<path d="M84.6515 71.1691C84.6515 64.1981 79.0189 58.5469 72.0706 58.5469C65.1224 58.5469 59.4897 64.1981 59.4897 71.1691C59.4897 78.1401 65.1224 83.7912 72.0706 83.7912C79.0189 83.7912 84.6515 78.1401 84.6515 71.1691ZM89.0065 71.1691C89.0065 80.5532 81.424 88.1604 72.0706 88.1604C62.7172 88.1604 55.1348 80.5532 55.1348 71.1691C55.1348 61.785 62.7172 54.1777 72.0706 54.1777C81.424 54.1777 89.0065 61.785 89.0065 71.1691Z" fill="white"/>
<path d="M95.2468 90.7902C96.3379 91.9691 96.2698 93.8121 95.0948 94.9067C93.9198 96.0014 92.0828 95.9331 90.9918 94.7543L84.7015 87.9579C83.6104 86.779 83.6784 84.936 84.8534 83.8414C86.0284 82.7467 87.8654 82.815 88.9565 83.9938L95.2468 90.7902Z" fill="white"/>
<path d="M90.4893 87.7323C91.1258 88.42 91.0861 89.4951 90.4007 90.1336C89.7152 90.7721 88.6437 90.7323 88.0072 90.0447L81.7169 83.2483C81.0805 82.5606 81.1201 81.4855 81.8056 80.847C82.491 80.2085 83.5625 80.2483 84.199 80.9359L90.4893 87.7323Z" fill="white"/>
<path d="M72.4737 60.7193C72.8952 60.6937 73.2425 60.6977 73.4906 60.7089C73.6147 60.7145 73.7145 60.7219 73.7868 60.7283C73.8229 60.7316 73.8521 60.7349 73.8743 60.7373C73.8853 60.7386 73.8947 60.7398 73.9021 60.7407C73.9059 60.7411 73.9093 60.7413 73.9121 60.7416C73.9134 60.7418 73.9147 60.7419 73.9159 60.7421C73.9164 60.7422 73.9175 60.7425 73.9177 60.7426C73.918 60.7462 73.9105 60.8097 73.7642 61.9463L73.9192 60.7426C74.5817 60.8284 75.0495 61.437 74.9639 62.1018C74.8786 62.7644 74.2755 63.2327 73.6153 63.1505L73.612 63.15H73.6092C73.6024 63.1492 73.5898 63.1478 73.5718 63.1462C73.5329 63.1427 73.4685 63.1378 73.3819 63.1339C73.2084 63.126 72.947 63.1226 72.6201 63.1424C71.9638 63.1822 71.0598 63.3155 70.0793 63.6876C68.1649 64.4142 65.8396 66.0905 64.5085 70.0968C64.2972 70.7327 63.6118 71.0763 62.978 70.8644C62.3443 70.6523 62.0018 69.965 62.2129 69.3293C63.7851 64.5972 66.6615 62.3899 69.2231 61.4177C70.4803 60.9405 71.6331 60.7704 72.4737 60.7193ZM73.6153 63.1505C73.6152 63.1504 73.6144 63.1506 73.6134 63.1505L73.612 63.15C73.613 63.1501 73.6144 63.1503 73.6153 63.1505Z" fill="white"/>
<circle cx="0.309756" cy="0.309756" r="0.309756" transform="matrix(-1 0 0 1 65.668 103.123)" fill="white"/>
<circle cx="56.6851" cy="100.951" r="0.929268" fill="white"/>
<circle cx="26.3293" cy="54.4875" r="0.309756" fill="white"/>
<circle cx="31.2861" cy="54.4882" r="1.54878" fill="white"/>
<circle cx="28.4988" cy="59.7507" r="1.23902" fill="white"/>
<circle cx="0.309756" cy="0.309756" r="0.309756" transform="matrix(1 0 0 -1 20.4424 74.0039)" fill="white"/>
<circle cx="23.8521" cy="58.2066" r="0.929268" fill="white"/>
<circle cx="24.7787" cy="64.0902" r="0.619512" fill="white"/>
<circle cx="20.7539" cy="66.2558" r="1.54878" fill="white"/>
<circle cx="22.3021" cy="70.2855" r="0.619512" fill="white"/>
<circle cx="19.8246" cy="117.366" r="0.619512" fill="white"/>
<circle cx="38.1008" cy="135.644" r="0.309756" fill="white"/>
<circle cx="41.8173" cy="141.217" r="1.54878" fill="white"/>
<circle cx="27.5683" cy="132.545" r="1.54878" fill="white"/>
<circle cx="87.0419" cy="139.361" r="1.54878" fill="white"/>
<circle cx="39.6496" cy="94.4464" r="1.85854" fill="white"/>
<circle cx="69.0758" cy="99.7105" r="0.929268" fill="white"/>
<circle cx="0.619512" cy="0.619512" r="0.619512" transform="matrix(-1 0 0 1 58.2344 96.9219)" fill="white"/>
<circle cx="61.9509" cy="103.116" r="1.23902" fill="white"/>
<circle cx="103.46" cy="130.376" r="1.23902" fill="white"/>
<circle cx="98.5023" cy="135.336" r="0.619512" fill="white"/>
<circle cx="91.9973" cy="138.122" r="0.309756" fill="white"/>
<circle cx="94.4765" cy="134.404" r="1.54878" fill="white"/>
<circle cx="100.052" cy="128.206" r="0.309756" fill="white"/>
<circle cx="104.08" cy="121.085" r="1.23902" fill="white"/>
<circle cx="0.619512" cy="0.619512" r="0.619512" transform="matrix(-1 0 0 1 111.513 103.123)" fill="white"/>
<circle cx="109.034" cy="78.9578" r="1.23902" fill="white"/>
<circle cx="114.299" cy="97.8554" r="1.54878" fill="white"/>
<circle cx="111.511" cy="91.9656" r="1.23902" fill="white"/>
<circle cx="111.512" cy="87.0121" r="0.619512" fill="white"/>
<circle cx="0.619512" cy="0.619512" r="0.619512" transform="matrix(-1 0 0 1 111.513 80.8164)" fill="white"/>
<circle cx="108.415" cy="70.905" r="1.23902" fill="white"/>
<circle cx="98.5023" cy="130.995" r="0.619512" fill="white"/>
<circle cx="69.6953" cy="105.908" r="1.54878" fill="white"/>
<circle cx="103.15" cy="125.113" r="0.929268" fill="white"/>
<circle cx="109.034" cy="121.085" r="1.23902" fill="white"/>
<circle cx="111.201" cy="110.242" r="0.929268" fill="white"/>
<circle cx="108.104" cy="115.82" r="1.54878" fill="white"/>
<circle cx="26.9501" cy="126.35" r="1.54878" fill="white"/>
<circle cx="37.48" cy="139.361" r="0.929268" fill="white"/>
<circle cx="0.619512" cy="0.619512" r="0.619512" transform="matrix(1 0 0 -1 33.4531 135.951)" fill="white"/>
<circle cx="24.4683" cy="122.632" r="0.929268" fill="white"/>
<circle cx="20.4441" cy="123.561" r="1.23902" fill="white"/>
<circle cx="40.8881" cy="137.811" r="0.619512" fill="white"/>
<circle cx="43.9847" cy="98.1625" r="0.619512" fill="white"/>
<circle cx="42.4377" cy="100.64" r="0.309756" fill="white"/>
<circle cx="51.1099" cy="94.7554" r="0.929268" fill="white"/>
<circle cx="34.3847" cy="97.8554" r="1.54878" fill="white"/>
<circle cx="38.4108" cy="100.023" r="0.619512" transform="rotate(180 38.4108 100.023)" fill="white"/>
<circle cx="53.5861" cy="99.7141" r="0.309756" fill="white"/>
<circle cx="48.3214" cy="99.4015" r="1.85854" fill="white"/>
<path d="M149.627 124.332V60.0038H164.515V112.202H196.771V124.332H149.627ZM197.083 124.332L225.755 60.0038H240.459L269.223 124.332H253.6L230.074 67.5394H235.956L212.338 124.332H197.083ZM211.419 110.547L215.371 99.244H248.454L252.497 110.547H211.419ZM275.897 124.332V60.0038H288.211L326.165 106.32H320.191V60.0038H334.895V124.332H322.673L284.627 78.0157H290.6V124.332H275.897ZM341.66 124.332L370.332 60.0038H385.036L413.8 124.332H398.177L374.651 67.5394H380.533L356.915 124.332H341.66ZM355.996 110.547L359.948 99.244H393.031L397.074 110.547H355.996ZM450.638 125.435C445.553 125.435 440.866 124.638 436.577 123.045C432.35 121.391 428.643 119.063 425.458 116.061C422.333 113.059 419.883 109.537 418.106 105.493C416.39 101.45 415.533 97.0079 415.533 92.1679C415.533 87.328 416.39 82.8863 418.106 78.8428C419.883 74.7993 422.364 71.2766 425.55 68.2746C428.735 65.2726 432.472 62.9752 436.761 61.3823C441.05 59.7281 445.767 58.9011 450.913 58.9011C456.611 58.9011 461.727 59.8507 466.26 61.7499C470.855 63.6491 474.715 66.406 477.839 70.0206L468.282 78.8428C465.954 76.3922 463.411 74.5849 460.654 73.4208C457.897 72.1956 454.895 71.5829 451.648 71.5829C448.524 71.5829 445.675 72.073 443.102 73.0533C440.529 74.0335 438.293 75.4426 436.393 77.2805C434.556 79.1185 433.116 81.2934 432.074 83.8053C431.094 86.3171 430.604 89.1047 430.604 92.1679C430.604 95.1699 431.094 97.9268 432.074 100.439C433.116 102.951 434.556 105.156 436.393 107.055C438.293 108.893 440.498 110.302 443.01 111.283C445.583 112.263 448.401 112.753 451.465 112.753C454.405 112.753 457.254 112.293 460.011 111.374C462.829 110.394 465.556 108.771 468.19 106.504L476.645 117.256C473.152 119.89 469.078 121.912 464.422 123.321C459.827 124.73 455.232 125.435 450.638 125.435ZM463.044 115.326V91.1571H476.645V117.256L463.044 115.326ZM519.054 125.435C509.925 125.435 502.788 122.892 497.642 117.807C492.495 112.722 489.922 105.462 489.922 96.0276V60.0038H504.81V95.4762C504.81 101.603 506.066 106.014 508.577 108.709C511.089 111.405 514.612 112.753 519.146 112.753C523.679 112.753 527.202 111.405 529.714 108.709C532.226 106.014 533.482 101.603 533.482 95.4762V60.0038H548.185V96.0276C548.185 105.462 545.612 112.722 540.466 117.807C535.32 122.892 528.182 125.435 519.054 125.435ZM553.096 124.332L581.768 60.0038H596.472L625.236 124.332H609.613L586.087 67.5394H591.969L568.351 124.332H553.096ZM567.432 110.547L571.384 99.244H604.467L608.51 110.547H567.432Z" fill="white"/>
<defs>
<linearGradient id="paint0_linear_368_520" x1="63.6545" y1="8.33203" x2="63.6545" y2="141.837" gradientUnits="userSpaceOnUse">
<stop stop-color="white"/>
<stop offset="1" stop-color="#A19E9E"/>
</linearGradient>
</defs>
</svg>
