<svg width="205" height="250" viewBox="0 0 205 250" fill="none" xmlns="http://www.w3.org/2000/svg">
<circle cx="102.5" cy="146.697" r="99.5" stroke="white" stroke-width="6"/>
<path d="M178.5 154.697C178.5 196.119 144.921 229.697 103.5 229.697C62.1595 229.697 27 196.198 27 154.697V154.585L27.0088 154.473C28.5575 133.823 36.9316 113.367 49.8184 90.2969C62.6877 67.2576 80.2886 41.2275 100.471 9.58398L103.013 5.59863L105.536 9.5957C126.472 42.7445 144.069 69.1442 156.688 91.9971C169.325 114.881 177.201 134.595 178.494 154.503L178.5 154.6V154.697Z" fill="url(#paint0_linear_368_176)" stroke="white" stroke-width="6"/>
<path d="M31.5 170.697C89 151.197 110.5 199.198 174 176.698" stroke="white" stroke-width="6"/>
<path d="M91.7836 213.087C83.9538 212.55 76.3831 210.061 69.7623 205.846C63.1415 201.632 57.6814 195.827 53.8803 188.961" stroke="white" stroke-width="6" stroke-linecap="round"/>
<path d="M136.645 112.624C136.645 101.372 127.553 92.2499 116.337 92.2499C105.122 92.2499 96.0296 101.372 96.0296 112.624C96.0296 123.877 105.122 132.999 116.337 132.999C127.553 132.999 136.645 123.877 136.645 112.624ZM143.675 112.624C143.675 127.772 131.435 140.051 116.337 140.051C101.239 140.051 89 127.772 89 112.624C89 97.4767 101.239 85.1973 116.337 85.1973C131.435 85.1973 143.675 97.4767 143.675 112.624Z" fill="white"/>
<path d="M153.748 144.296C155.509 146.199 155.399 149.174 153.502 150.941C151.606 152.708 148.641 152.598 146.879 150.695L136.726 139.724C134.965 137.821 135.074 134.846 136.971 133.08C138.868 131.313 141.833 131.423 143.594 133.326L153.748 144.296Z" fill="white"/>
<path d="M146.068 139.36C147.096 140.47 147.032 142.206 145.925 143.236C144.819 144.267 143.089 144.203 142.062 143.093L131.908 132.122C130.881 131.012 130.945 129.277 132.051 128.246C133.158 127.215 134.887 127.28 135.915 128.39L146.068 139.36Z" fill="white"/>
<path d="M116.988 95.7565C117.668 95.7152 118.229 95.7216 118.629 95.7397C118.83 95.7487 118.991 95.7606 119.108 95.7711C119.166 95.7763 119.213 95.7817 119.249 95.7856C119.267 95.7876 119.282 95.7895 119.294 95.791C119.3 95.7917 119.305 95.7919 119.31 95.7925C119.312 95.7928 119.314 95.793 119.316 95.7933C119.317 95.7934 119.319 95.794 119.319 95.794C119.319 95.7999 119.307 95.9024 119.071 97.737L119.321 95.794C120.391 95.9327 121.146 96.915 121.008 97.988C120.87 99.0577 119.896 99.8135 118.831 99.6808L118.825 99.68H118.821C118.81 99.6788 118.79 99.6765 118.761 99.6739C118.698 99.6683 118.594 99.6603 118.454 99.654C118.174 99.6414 117.752 99.6358 117.224 99.6678C116.165 99.7321 114.706 99.9472 113.123 100.548C110.033 101.721 106.279 104.427 104.131 110.893C103.79 111.92 102.683 112.475 101.66 112.132C100.637 111.79 100.085 110.681 100.425 109.654C102.963 102.016 107.606 98.4531 111.741 96.8838C113.77 96.1135 115.631 95.8389 116.988 95.7565ZM118.831 99.6808C118.831 99.6808 118.829 99.681 118.828 99.6808L118.825 99.68C118.827 99.6802 118.829 99.6806 118.831 99.6808Z" fill="white"/>
<circle cx="0.5" cy="0.5" r="0.5" transform="matrix(-1 0 0 1 106 164.197)" fill="white"/>
<circle cx="91.5" cy="160.697" r="1.5" fill="white"/>
<circle cx="42.5" cy="85.6973" r="0.5" fill="white"/>
<circle cx="50.5" cy="85.6973" r="2.5" fill="white"/>
<circle cx="46" cy="94.1973" r="2" fill="white"/>
<circle cx="0.5" cy="0.5" r="0.5" transform="matrix(1 0 0 -1 33 117.197)" fill="white"/>
<circle cx="38.5" cy="91.6973" r="1.5" fill="white"/>
<circle cx="40" cy="101.197" r="1" fill="white"/>
<circle cx="33.5" cy="104.697" r="2.5" fill="white"/>
<circle cx="36" cy="111.197" r="1" fill="white"/>
<circle cx="32" cy="187.197" r="1" fill="white"/>
<circle cx="61.5" cy="216.697" r="0.5" fill="white"/>
<circle cx="67.5" cy="225.697" r="2.5" fill="white"/>
<circle cx="44.5" cy="211.697" r="2.5" fill="white"/>
<circle cx="140.5" cy="222.697" r="2.5" fill="white"/>
<circle cx="64" cy="150.197" r="3" fill="white"/>
<circle cx="111.5" cy="158.697" r="1.5" fill="white"/>
<circle cx="1" cy="1" r="1" transform="matrix(-1 0 0 1 94 154.197)" fill="white"/>
<circle cx="100" cy="164.197" r="2" fill="white"/>
<circle cx="167" cy="208.197" r="2" fill="white"/>
<circle cx="159" cy="216.197" r="1" fill="white"/>
<circle cx="148.5" cy="220.697" r="0.5" fill="white"/>
<circle cx="152.5" cy="214.697" r="2.5" fill="white"/>
<circle cx="161.5" cy="204.697" r="0.5" fill="white"/>
<circle cx="168" cy="193.197" r="2" fill="white"/>
<circle cx="1" cy="1" r="1" transform="matrix(-1 0 0 1 180 164.197)" fill="white"/>
<circle cx="176" cy="125.197" r="2" fill="white"/>
<circle cx="184.5" cy="155.697" r="2.5" fill="white"/>
<circle cx="180" cy="146.197" r="2" fill="white"/>
<circle cx="180" cy="138.197" r="1" fill="white"/>
<circle cx="1" cy="1" r="1" transform="matrix(-1 0 0 1 180 128.197)" fill="white"/>
<circle cx="175" cy="112.197" r="2" fill="white"/>
<circle cx="159" cy="209.197" r="1" fill="white"/>
<circle cx="112.5" cy="168.697" r="2.5" fill="white"/>
<circle cx="166.5" cy="199.697" r="1.5" fill="white"/>
<circle cx="176" cy="193.197" r="2" fill="white"/>
<circle cx="179.5" cy="175.697" r="1.5" fill="white"/>
<circle cx="174.5" cy="184.697" r="2.5" fill="white"/>
<circle cx="43.5" cy="201.697" r="2.5" fill="white"/>
<circle cx="60.5" cy="222.697" r="1.5" fill="white"/>
<circle cx="1" cy="1" r="1" transform="matrix(1 0 0 -1 54 217.197)" fill="white"/>
<circle cx="39.5" cy="195.697" r="1.5" fill="white"/>
<circle cx="33" cy="197.197" r="2" fill="white"/>
<circle cx="66" cy="220.197" r="1" fill="white"/>
<circle cx="71" cy="156.197" r="1" fill="white"/>
<circle cx="68.5" cy="160.197" r="0.5" fill="white"/>
<circle cx="82.5" cy="150.697" r="1.5" fill="white"/>
<circle cx="55.5" cy="155.697" r="2.5" fill="white"/>
<circle cx="62" cy="159.197" r="1" transform="rotate(180 62 159.197)" fill="white"/>
<circle cx="86.5" cy="158.697" r="0.5" fill="white"/>
<circle cx="78" cy="158.197" r="3" fill="white"/>
<defs>
<linearGradient id="paint0_linear_368_176" x1="102.75" y1="11.1973" x2="102.75" y2="226.697" gradientUnits="userSpaceOnUse">
<stop stop-color="#55C7D7"/>
<stop offset="1" stop-color="#0B4F6A"/>
</linearGradient>
</defs>
</svg>
