<svg width="999" height="980" viewBox="0 0 999 980" fill="none" xmlns="http://www.w3.org/2000/svg">
<path d="M346.665 936.012V816.545H374.313V913.484H434.217V936.012H346.665ZM434.797 936.012L488.045 816.545H515.352L568.771 936.012H539.757L496.067 830.54H506.989L463.128 936.012H434.797ZM461.421 910.412L468.76 889.42H530.2L537.709 910.412H461.421ZM599.912 936.012V839.073H561.683V816.545H665.789V839.073H627.56V936.012H599.912Z" fill="white"/>
<mask id="path-2-inside-1_373_224" fill="white">
<path d="M415.405 258.017C416.786 258.013 418.167 258.009 419.59 258.004C421.834 258.009 421.834 258.009 424.124 258.014C426.511 258.01 426.511 258.01 428.945 258.006C434.206 257.999 439.467 258.003 444.728 258.008C448.395 258.007 452.063 258.006 455.73 258.004C463.424 258.002 471.118 258.005 478.812 258.012C488.636 258.021 498.46 258.016 508.285 258.007C515.865 258.001 523.445 258.003 531.026 258.007C534.645 258.008 538.265 258.007 541.885 258.003C546.969 257.999 552.053 258.005 557.137 258.014C558.611 258.011 560.086 258.008 561.606 258.004C565.851 258.017 570.087 258.091 574.331 258.211C575.954 258.256 577.576 258.302 579.248 258.349C581.681 258.475 581.681 258.475 584.164 258.604C586.37 258.707 586.37 258.707 588.62 258.813C593.677 259.981 595.569 261.738 598.701 265.829C599.59 272.826 599.61 276.237 596.417 282.492C591.125 286.859 587.191 286.505 580.424 287.158C580.411 303.026 580.448 318.894 580.546 334.762C580.59 342.133 580.618 349.503 580.607 356.873C580.596 364.006 580.631 371.138 580.696 378.27C580.712 380.972 580.714 383.673 580.698 386.375C580.606 405.006 583.48 419.461 591.086 436.465C592.285 439.413 593.477 442.364 594.655 445.321C595.747 447.956 596.842 450.591 597.94 453.224C602.215 463.582 606.353 473.958 610.232 484.471C616.371 501.034 622.957 517.429 629.441 533.86C631.158 538.214 632.875 542.568 634.591 546.922C636.433 551.592 638.275 556.261 640.117 560.931C641.545 564.552 642.972 568.174 644.399 571.795C649.174 583.905 653.965 596.008 658.796 608.096C661.167 614.031 663.531 619.969 665.895 625.907C667.034 628.763 668.177 631.619 669.323 634.473C681.275 664.243 692.097 692.737 679.088 724.373C669.347 743.672 654.144 757.68 634.025 765.74C623.703 769.009 613.32 770.302 602.502 770.345C600.575 770.356 598.647 770.367 596.661 770.378C594.552 770.382 592.443 770.386 590.333 770.39C588.09 770.4 585.847 770.41 583.604 770.421C576.263 770.453 568.922 770.468 561.581 770.484C559.041 770.49 556.502 770.496 553.962 770.502C542.022 770.531 530.082 770.553 518.142 770.566C504.418 770.581 490.696 770.621 476.973 770.682C466.328 770.729 455.683 770.751 445.038 770.756C438.698 770.759 432.359 770.773 426.019 770.811C420.042 770.847 414.065 770.853 408.088 770.838C405.914 770.837 403.741 770.846 401.568 770.867C375.504 771.107 349.996 765.605 330.391 747.321C318.653 734.361 310.603 717.565 309.305 700.038C309.227 699.066 309.148 698.093 309.067 697.092C308.252 678.578 314.991 660.654 321.586 643.667C322.382 641.582 323.177 639.498 323.971 637.413C326.671 630.346 329.409 623.294 332.152 616.243C332.656 614.947 333.159 613.651 333.678 612.316C340.466 594.848 347.299 577.399 354.153 559.958C358.375 549.21 362.582 538.456 366.78 527.699C388.516 472.017 388.516 472.017 399.625 444.526C400.288 442.881 400.951 441.237 401.633 439.542C402.193 438.161 402.752 436.78 403.328 435.357C403.967 433.712 404.605 432.066 405.263 430.371C405.778 429.288 406.293 428.205 406.823 427.089C412.851 413.201 412.13 399.488 411.95 384.647C411.939 381.87 411.93 379.093 411.924 376.316C411.901 369.06 411.841 361.804 411.774 354.548C411.711 347.123 411.684 339.698 411.653 332.272C411.588 317.742 411.484 303.212 411.355 288.682C409.673 288.248 407.99 287.814 406.256 287.366C399.794 285.355 397.863 283.89 394.601 278.017C393.692 271.655 393.906 268.536 397.171 262.972C402.576 258.004 408.287 258.021 415.405 258.017ZM440.295 285.635C440.303 287.262 440.311 288.89 440.319 290.567C440.387 306.05 440.389 321.532 440.331 337.015C440.302 344.972 440.296 352.927 440.342 360.884C440.386 368.59 440.368 376.294 440.312 384C440.301 386.911 440.31 389.824 440.342 392.735C440.555 413.842 436.576 430.509 428.071 449.827C425.928 454.73 423.991 459.703 422.041 464.686C420.639 468.167 419.235 471.646 417.829 475.125C411.548 490.726 405.399 506.372 399.361 522.069C392.831 539.042 386.148 555.947 379.37 572.822C370.211 595.63 361.257 618.51 352.451 641.456C350.522 646.473 348.583 651.486 346.64 656.498C345.523 659.394 344.406 662.29 343.29 665.187C342.792 666.468 342.293 667.749 341.78 669.069C335.978 684.207 335.101 696.946 341.291 712.226C348.451 726.103 358.8 734.326 373.233 739.908C382.459 742.438 391.957 742.018 401.449 741.962C403.8 741.97 406.151 741.981 408.502 741.994C414.847 742.022 421.19 742.011 427.535 741.992C434.196 741.976 440.857 741.991 447.518 742C458.699 742.011 469.88 741.997 481.062 741.968C493.964 741.935 506.865 741.945 519.767 741.979C530.874 742.007 541.981 742.01 553.087 741.995C559.708 741.985 566.329 741.984 572.95 742.004C579.175 742.022 585.399 742.009 591.624 741.974C593.9 741.966 596.176 741.968 598.452 741.982C610.857 742.049 621.304 741.559 632.21 735.079C633.426 734.4 634.641 733.72 635.893 733.02C646.863 725.124 654.311 713.43 656.58 700.038C659.228 674.103 646.011 649.431 636.589 625.86C635.415 622.908 634.241 619.956 633.068 617.004C630.762 611.2 628.454 605.396 626.143 599.593C622.421 590.238 618.743 580.866 615.075 571.489C609.624 557.57 604.125 543.67 598.612 529.776C597.914 528.015 597.215 526.255 596.496 524.441C592.974 515.563 589.45 506.687 585.923 497.812C579.221 480.932 572.566 464.04 566.214 447.025C563.525 439.87 560.608 432.904 557.342 425.991C554.698 419.347 554.339 413.042 554.333 405.943C554.328 404.121 554.324 402.298 554.319 400.42C554.323 397.473 554.323 397.473 554.328 394.467C554.327 392.398 554.325 390.33 554.324 388.262C554.321 383.917 554.325 379.572 554.332 375.226C554.34 369.751 554.335 364.276 554.326 358.801C554.294 335.392 554.505 312.049 556.053 288.682C554.545 287.173 554.545 287.173 553.007 285.635C547.478 285.635 541.949 285.635 536.253 285.635C536.16 288.034 536.068 290.434 535.973 292.907C535.051 316.891 534.129 340.875 533.206 364.859C515.189 377.026 497.136 389.107 478.659 400.567C476.644 401.821 476.644 401.821 474.588 403.1C465.251 408.846 465.251 408.846 460.096 410.565C459.593 369.338 459.091 328.111 458.573 285.635C452.541 285.635 446.509 285.635 440.295 285.635Z"/>
</mask>
<path d="M415.405 258.017C416.786 258.013 418.167 258.009 419.59 258.004C421.834 258.009 421.834 258.009 424.124 258.014C426.511 258.01 426.511 258.01 428.945 258.006C434.206 257.999 439.467 258.003 444.728 258.008C448.395 258.007 452.063 258.006 455.73 258.004C463.424 258.002 471.118 258.005 478.812 258.012C488.636 258.021 498.46 258.016 508.285 258.007C515.865 258.001 523.445 258.003 531.026 258.007C534.645 258.008 538.265 258.007 541.885 258.003C546.969 257.999 552.053 258.005 557.137 258.014C558.611 258.011 560.086 258.008 561.606 258.004C565.851 258.017 570.087 258.091 574.331 258.211C575.954 258.256 577.576 258.302 579.248 258.349C581.681 258.475 581.681 258.475 584.164 258.604C586.37 258.707 586.37 258.707 588.62 258.813C593.677 259.981 595.569 261.738 598.701 265.829C599.59 272.826 599.61 276.237 596.417 282.492C591.125 286.859 587.191 286.505 580.424 287.158C580.411 303.026 580.448 318.894 580.546 334.762C580.59 342.133 580.618 349.503 580.607 356.873C580.596 364.006 580.631 371.138 580.696 378.27C580.712 380.972 580.714 383.673 580.698 386.375C580.606 405.006 583.48 419.461 591.086 436.465C592.285 439.413 593.477 442.364 594.655 445.321C595.747 447.956 596.842 450.591 597.94 453.224C602.215 463.582 606.353 473.958 610.232 484.471C616.371 501.034 622.957 517.429 629.441 533.86C631.158 538.214 632.875 542.568 634.591 546.922C636.433 551.592 638.275 556.261 640.117 560.931C641.545 564.552 642.972 568.174 644.399 571.795C649.174 583.905 653.965 596.008 658.796 608.096C661.167 614.031 663.531 619.969 665.895 625.907C667.034 628.763 668.177 631.619 669.323 634.473C681.275 664.243 692.097 692.737 679.088 724.373C669.347 743.672 654.144 757.68 634.025 765.74C623.703 769.009 613.32 770.302 602.502 770.345C600.575 770.356 598.647 770.367 596.661 770.378C594.552 770.382 592.443 770.386 590.333 770.39C588.09 770.4 585.847 770.41 583.604 770.421C576.263 770.453 568.922 770.468 561.581 770.484C559.041 770.49 556.502 770.496 553.962 770.502C542.022 770.531 530.082 770.553 518.142 770.566C504.418 770.581 490.696 770.621 476.973 770.682C466.328 770.729 455.683 770.751 445.038 770.756C438.698 770.759 432.359 770.773 426.019 770.811C420.042 770.847 414.065 770.853 408.088 770.838C405.914 770.837 403.741 770.846 401.568 770.867C375.504 771.107 349.996 765.605 330.391 747.321C318.653 734.361 310.603 717.565 309.305 700.038C309.227 699.066 309.148 698.093 309.067 697.092C308.252 678.578 314.991 660.654 321.586 643.667C322.382 641.582 323.177 639.498 323.971 637.413C326.671 630.346 329.409 623.294 332.152 616.243C332.656 614.947 333.159 613.651 333.678 612.316C340.466 594.848 347.299 577.399 354.153 559.958C358.375 549.21 362.582 538.456 366.78 527.699C388.516 472.017 388.516 472.017 399.625 444.526C400.288 442.881 400.951 441.237 401.633 439.542C402.193 438.161 402.752 436.78 403.328 435.357C403.967 433.712 404.605 432.066 405.263 430.371C405.778 429.288 406.293 428.205 406.823 427.089C412.851 413.201 412.13 399.488 411.95 384.647C411.939 381.87 411.93 379.093 411.924 376.316C411.901 369.06 411.841 361.804 411.774 354.548C411.711 347.123 411.684 339.698 411.653 332.272C411.588 317.742 411.484 303.212 411.355 288.682C409.673 288.248 407.99 287.814 406.256 287.366C399.794 285.355 397.863 283.89 394.601 278.017C393.692 271.655 393.906 268.536 397.171 262.972C402.576 258.004 408.287 258.021 415.405 258.017ZM440.295 285.635C440.303 287.262 440.311 288.89 440.319 290.567C440.387 306.05 440.389 321.532 440.331 337.015C440.302 344.972 440.296 352.927 440.342 360.884C440.386 368.59 440.368 376.294 440.312 384C440.301 386.911 440.31 389.824 440.342 392.735C440.555 413.842 436.576 430.509 428.071 449.827C425.928 454.73 423.991 459.703 422.041 464.686C420.639 468.167 419.235 471.646 417.829 475.125C411.548 490.726 405.399 506.372 399.361 522.069C392.831 539.042 386.148 555.947 379.37 572.822C370.211 595.63 361.257 618.51 352.451 641.456C350.522 646.473 348.583 651.486 346.64 656.498C345.523 659.394 344.406 662.29 343.29 665.187C342.792 666.468 342.293 667.749 341.78 669.069C335.978 684.207 335.101 696.946 341.291 712.226C348.451 726.103 358.8 734.326 373.233 739.908C382.459 742.438 391.957 742.018 401.449 741.962C403.8 741.97 406.151 741.981 408.502 741.994C414.847 742.022 421.19 742.011 427.535 741.992C434.196 741.976 440.857 741.991 447.518 742C458.699 742.011 469.88 741.997 481.062 741.968C493.964 741.935 506.865 741.945 519.767 741.979C530.874 742.007 541.981 742.01 553.087 741.995C559.708 741.985 566.329 741.984 572.95 742.004C579.175 742.022 585.399 742.009 591.624 741.974C593.9 741.966 596.176 741.968 598.452 741.982C610.857 742.049 621.304 741.559 632.21 735.079C633.426 734.4 634.641 733.72 635.893 733.02C646.863 725.124 654.311 713.43 656.58 700.038C659.228 674.103 646.011 649.431 636.589 625.86C635.415 622.908 634.241 619.956 633.068 617.004C630.762 611.2 628.454 605.396 626.143 599.593C622.421 590.238 618.743 580.866 615.075 571.489C609.624 557.57 604.125 543.67 598.612 529.776C597.914 528.015 597.215 526.255 596.496 524.441C592.974 515.563 589.45 506.687 585.923 497.812C579.221 480.932 572.566 464.04 566.214 447.025C563.525 439.87 560.608 432.904 557.342 425.991C554.698 419.347 554.339 413.042 554.333 405.943C554.328 404.121 554.324 402.298 554.319 400.42C554.323 397.473 554.323 397.473 554.328 394.467C554.327 392.398 554.325 390.33 554.324 388.262C554.321 383.917 554.325 379.572 554.332 375.226C554.34 369.751 554.335 364.276 554.326 358.801C554.294 335.392 554.505 312.049 556.053 288.682C554.545 287.173 554.545 287.173 553.007 285.635C547.478 285.635 541.949 285.635 536.253 285.635C536.16 288.034 536.068 290.434 535.973 292.907C535.051 316.891 534.129 340.875 533.206 364.859C515.189 377.026 497.136 389.107 478.659 400.567C476.644 401.821 476.644 401.821 474.588 403.1C465.251 408.846 465.251 408.846 460.096 410.565C459.593 369.338 459.091 328.111 458.573 285.635C452.541 285.635 446.509 285.635 440.295 285.635Z" fill="white" stroke="black" stroke-width="6" mask="url(#path-2-inside-1_373_224)"/>
<path d="M489.584 491.002C498.921 500.033 532.267 534.946 524.375 565.252C515.299 600.103 517.667 605.341 525.888 606.165C525.888 606.165 533.451 609.195 537.989 597.073C542.51 584.996 542.527 574.423 542.527 574.344C559.167 597.073 564.882 616.082 566.73 645.562C566.73 689.506 530.426 718.297 494.122 718.297C471.432 721.327 420 702.602 420 645.562C423.025 594.042 475.97 566.767 489.584 491.002ZM494.066 603.072C474.128 634.393 459.604 654.123 458.127 673.853C458.127 693.466 474.736 709.365 494.312 709.365C513.889 709.365 529.759 693.466 529.759 673.853C528.528 654.863 514.744 635.873 494.066 603.072Z" fill="#FF2525"/>
<path d="M498.185 668.698C503.958 671.965 508.554 675.829 511.337 679.375C512.732 681.152 513.616 682.778 514.008 684.148C514.398 685.511 514.266 686.471 513.873 687.135C513.48 687.799 512.693 688.39 511.29 688.738C509.88 689.088 507.997 689.149 505.727 688.852C501.195 688.258 495.478 686.288 489.704 683.021C483.931 679.754 479.334 675.889 476.551 672.343C475.157 670.566 474.273 668.941 473.881 667.571C473.491 666.208 473.623 665.247 474.016 664.583C474.41 663.919 475.196 663.329 476.599 662.98C478.009 662.63 479.891 662.569 482.162 662.867C486.693 663.46 492.411 665.431 498.185 668.698Z" stroke="black" stroke-width="3.46608"/>
<path d="M502.437 675.82C502.47 682.332 501.382 688.151 499.662 692.28C498.801 694.349 497.814 695.912 496.805 696.933C495.801 697.947 494.874 698.337 494.057 698.341C493.24 698.344 492.309 697.964 491.296 696.959C490.276 695.948 489.274 694.394 488.392 692.335C486.63 688.222 485.482 682.413 485.449 675.901C485.417 669.389 486.506 663.57 488.226 659.441C489.087 657.372 490.073 655.808 491.083 654.787C492.086 653.773 493.013 653.384 493.83 653.38C494.647 653.376 495.579 653.756 496.592 654.761C497.612 655.772 498.614 657.326 499.496 659.386C501.258 663.499 502.405 669.308 502.437 675.82Z" stroke="black" stroke-width="3.46608"/>
<path d="M498.155 683.034C492.369 686.279 486.643 688.228 482.109 688.805C479.837 689.094 477.955 689.026 476.546 688.67C475.144 688.317 474.36 687.724 473.97 687.058C473.58 686.393 473.451 685.432 473.847 684.07C474.244 682.702 475.135 681.08 476.536 679.309C479.333 675.773 483.945 671.925 489.731 668.68C495.517 665.434 501.243 663.485 505.776 662.909C508.047 662.62 509.929 662.688 511.338 663.043C512.74 663.396 513.524 663.99 513.914 664.655C514.305 665.32 514.433 666.281 514.038 667.643C513.64 669.011 512.751 670.634 511.349 672.405C508.552 675.94 503.941 679.789 498.155 683.034Z" stroke="black" stroke-width="3.46608"/>
<circle cx="493.944" cy="675.86" r="4.04376" fill="white" stroke="black" stroke-width="1.15536"/>
<g clip-path="url(#clip0_373_224)">
<path d="M506.749 92.2473L521.188 10.1994C522.069 5.1939 526.775 1.8479 531.762 2.73946L531.765 2.73997C536.753 3.61796 540.039 8.35918 539.159 13.3619L524.72 95.4097C523.841 100.408 519.137 103.749 514.144 102.87C509.155 101.992 505.868 97.255 506.749 92.2473Z" fill="white" stroke="black" stroke-width="2"/>
<mask id="path-9-inside-2_373_224" fill="white">
<path d="M543.999 77.0002L559.499 79.5692L563.209 59.4616L567.499 36.9999L552.499 34.5002L536.093 31.5001L538.433 18.2024L705.228 47.5542C724.93 51.0217 738.125 69.935 734.659 89.6326C731.192 109.33 712.334 122.602 692.631 119.135L525.837 89.7832L528.526 74.5005L543.999 77.0002ZM643.516 62.5943C642.929 65.9305 645.158 69.1111 648.494 69.6983C651.831 70.2854 655.011 68.0566 655.598 64.7204C656.186 61.3841 653.957 58.2034 650.621 57.6163C647.284 57.0293 644.104 59.258 643.516 62.5943ZM600.488 76.227C599.58 81.3901 603.029 86.3122 608.192 87.2208C613.355 88.129 618.277 84.6802 619.186 79.5174C620.094 74.3544 616.646 69.4316 611.483 68.5227C606.32 67.6142 601.397 71.0639 600.488 76.227Z"/>
</mask>
<path d="M543.999 77.0002L559.499 79.5692L563.209 59.4616L567.499 36.9999L552.499 34.5002L536.093 31.5001L538.433 18.2024L705.228 47.5542C724.93 51.0217 738.125 69.935 734.659 89.6326C731.192 109.33 712.334 122.602 692.631 119.135L525.837 89.7832L528.526 74.5005L543.999 77.0002ZM643.516 62.5943C642.929 65.9305 645.158 69.1111 648.494 69.6983C651.831 70.2854 655.011 68.0566 655.598 64.7204C656.186 61.3841 653.957 58.2034 650.621 57.6163C647.284 57.0293 644.104 59.258 643.516 62.5943ZM600.488 76.227C599.58 81.3901 603.029 86.3122 608.192 87.2208C613.355 88.129 618.277 84.6802 619.186 79.5174C620.094 74.3544 616.646 69.4316 611.483 68.5227C606.32 67.6142 601.397 71.0639 600.488 76.227Z" fill="white"/>
<path d="M543.999 77.0002L544.326 75.0271L544.318 75.0258L543.999 77.0002ZM559.499 79.5692L559.172 81.5423L561.11 81.8634L561.466 79.9321L559.499 79.5692ZM563.209 59.4616L561.245 59.0864L561.243 59.0987L563.209 59.4616ZM567.499 36.9999L569.464 37.3751L569.848 35.3638L567.828 35.0272L567.499 36.9999ZM552.499 34.5002L552.14 36.4675L552.155 36.4704L552.171 36.473L552.499 34.5002ZM536.093 31.5001L534.124 31.1534L533.779 33.1101L535.734 33.4674L536.093 31.5001ZM538.433 18.2024L538.78 16.2327L536.81 15.8861L536.464 17.8558L538.433 18.2024ZM705.228 47.5542L705.575 45.5845L705.575 45.5845L705.228 47.5542ZM734.659 89.6326L736.629 89.9792L736.629 89.9792L734.659 89.6326ZM692.631 119.135L692.285 121.105L692.285 121.105L692.631 119.135ZM525.837 89.7832L523.867 89.4366L523.521 91.4063L525.49 91.7529L525.837 89.7832ZM528.526 74.5005L528.845 72.5261L526.898 72.2115L526.557 74.1538L528.526 74.5005ZM643.516 62.5943L641.547 62.2476V62.2476L643.516 62.5943ZM648.494 69.6983L648.148 71.668L648.148 71.668L648.494 69.6983ZM655.598 64.7204L657.568 65.067V65.067L655.598 64.7204ZM650.621 57.6163L650.967 55.6466L650.967 55.6466L650.621 57.6163ZM600.488 76.227L598.518 75.8803L598.518 75.8804L600.488 76.227ZM608.192 87.2208L607.846 89.1905L607.846 89.1905L608.192 87.2208ZM619.186 79.5174L621.156 79.8641L621.156 79.8639L619.186 79.5174ZM611.483 68.5227L611.829 66.553L611.829 66.553L611.483 68.5227ZM543.999 77.0002L543.672 78.9733L559.172 81.5423L559.499 79.5692L559.826 77.5961L544.326 75.0271L543.999 77.0002ZM559.499 79.5692L561.466 79.9321L565.176 59.8245L563.209 59.4616L561.243 59.0987L557.533 79.2063L559.499 79.5692ZM563.209 59.4616L565.174 59.8368L569.464 37.3751L567.499 36.9999L565.535 36.6248L561.245 59.0864L563.209 59.4616ZM567.499 36.9999L567.828 35.0272L552.828 32.5274L552.499 34.5002L552.171 36.473L567.17 38.9727L567.499 36.9999ZM552.499 34.5002L552.859 32.5328L536.453 29.5327L536.093 31.5001L535.734 33.4674L552.14 36.4675L552.499 34.5002ZM536.093 31.5001L538.063 31.8467L540.403 18.5491L538.433 18.2024L536.464 17.8558L534.124 31.1534L536.093 31.5001ZM538.433 18.2024L538.087 20.1722L704.881 49.5239L705.228 47.5542L705.575 45.5845L538.78 16.2327L538.433 18.2024ZM705.228 47.5542L704.881 49.5239C723.491 52.7992 735.965 70.6716 732.689 89.286L734.659 89.6326L736.629 89.9792C740.285 69.1983 726.369 49.2443 705.575 45.5845L705.228 47.5542ZM734.659 89.6326L732.689 89.2859C729.413 107.9 711.588 120.44 692.978 117.165L692.631 119.135L692.285 121.105C713.08 124.764 732.972 110.76 736.629 89.9792L734.659 89.6326ZM692.631 119.135L692.978 117.165L526.184 87.8135L525.837 89.7832L525.49 91.7529L692.285 121.105L692.631 119.135ZM525.837 89.7832L527.807 90.1298L530.496 74.8471L528.526 74.5005L526.557 74.1538L523.867 89.4366L525.837 89.7832ZM528.526 74.5005L528.207 76.4749L543.68 78.9746L543.999 77.0002L544.318 75.0258L528.845 72.5261L528.526 74.5005ZM643.516 62.5943L641.547 62.2476C640.768 66.6717 643.724 70.8894 648.148 71.668L648.494 69.6983L648.841 67.7285C646.593 67.3329 645.091 65.1892 645.486 62.9409L643.516 62.5943ZM648.494 69.6983L648.148 71.668C652.572 72.4465 656.79 69.4911 657.568 65.067L655.598 64.7204L653.629 64.3738C653.233 66.6222 651.089 68.1242 648.841 67.7285L648.494 69.6983ZM655.598 64.7204L657.568 65.067C658.347 60.6429 655.391 56.4252 650.967 55.6466L650.621 57.6163L650.274 59.5861C652.522 59.9817 654.024 62.1253 653.629 64.3738L655.598 64.7204ZM650.621 57.6163L650.967 55.6466C646.543 54.8681 642.325 57.8235 641.547 62.2476L643.516 62.5943L645.486 62.9409C645.882 60.6925 648.025 59.1904 650.274 59.5861L650.621 57.6163ZM600.488 76.227L598.518 75.8804C597.418 82.1315 601.595 88.0905 607.846 89.1905L608.192 87.2208L608.539 85.2511C604.464 84.5339 601.741 80.6486 602.458 76.5735L600.488 76.227ZM608.192 87.2208L607.846 89.1905C614.097 90.2902 620.055 86.1147 621.156 79.8641L619.186 79.5174L617.216 79.1707C616.499 83.2457 612.614 85.9679 608.539 85.251L608.192 87.2208ZM619.186 79.5174L621.156 79.8639C622.255 73.6134 618.08 67.6534 611.829 66.553L611.483 68.5227L611.136 70.4925C615.211 71.2098 617.933 75.0954 617.216 79.1708L619.186 79.5174ZM611.483 68.5227L611.829 66.553C605.578 65.453 599.618 69.6295 598.518 75.8803L600.488 76.227L602.458 76.5737C603.175 72.4983 607.061 69.7753 611.136 70.4925L611.483 68.5227Z" fill="black" mask="url(#path-9-inside-2_373_224)"/>
</g>
<mask id="path-11-inside-3_373_224" fill="white">
<path d="M494.812 129.031C496.031 127.812 497.969 127.813 499.188 129.031C500.656 130.469 534.5 164.312 534.5 184.375C534.5 205.062 517.687 221.875 497 221.875C476.313 221.875 459.5 205.062 459.5 184.375C459.5 164.313 493.344 130.469 494.812 129.031ZM475.125 184.375C473.399 184.375 472 185.773 472 187.5C472 197.839 480.411 206.25 490.75 206.25C492.476 206.25 493.875 204.852 493.875 203.125C493.875 201.398 492.476 200 490.75 200C483.857 200 478.25 194.394 478.25 187.5C478.25 185.773 476.851 184.375 475.125 184.375Z"/>
</mask>
<path d="M494.812 129.031C496.031 127.812 497.969 127.813 499.188 129.031C500.656 130.469 534.5 164.312 534.5 184.375C534.5 205.062 517.687 221.875 497 221.875C476.313 221.875 459.5 205.062 459.5 184.375C459.5 164.313 493.344 130.469 494.812 129.031ZM475.125 184.375C473.399 184.375 472 185.773 472 187.5C472 197.839 480.411 206.25 490.75 206.25C492.476 206.25 493.875 204.852 493.875 203.125C493.875 201.398 492.476 200 490.75 200C483.857 200 478.25 194.394 478.25 187.5C478.25 185.773 476.851 184.375 475.125 184.375Z" fill="#FF2525"/>
<path d="M494.812 129.031L496.211 130.461L496.219 130.453L496.227 130.445L494.812 129.031ZM499.188 129.031L497.773 130.445L497.781 130.453L497.789 130.461L499.188 129.031ZM534.5 184.375H536.5V184.375H534.5ZM459.5 184.375H457.5V184.375H459.5ZM494.812 129.031L496.227 130.445C496.664 130.008 497.336 130.008 497.773 130.445L499.188 129.031L500.602 127.617C498.602 125.617 495.398 125.617 493.398 127.617L494.812 129.031ZM499.188 129.031L497.789 130.461C498.487 131.144 507.246 139.894 515.814 150.944C520.099 156.47 524.301 162.526 527.423 168.404C530.569 174.328 532.5 179.854 532.5 184.375H534.5H536.5C536.5 178.865 534.2 172.637 530.955 166.528C527.686 160.372 523.335 154.116 518.975 148.493C510.254 137.247 501.357 128.356 500.586 127.602L499.188 129.031ZM534.5 184.375H532.5C532.5 203.958 516.583 219.875 497 219.875V221.875V223.875C518.792 223.875 536.5 206.167 536.5 184.375H534.5ZM497 221.875V219.875C477.417 219.875 461.5 203.958 461.5 184.375H459.5H457.5C457.5 206.167 475.208 223.875 497 223.875V221.875ZM459.5 184.375H461.5C461.5 179.854 463.431 174.328 466.577 168.404C469.699 162.526 473.901 156.47 478.186 150.944C486.754 139.894 495.513 131.144 496.211 130.461L494.812 129.031L493.414 127.602C492.643 128.356 483.746 137.247 475.025 148.493C470.665 154.116 466.314 160.372 463.045 166.528C459.8 172.637 457.5 178.865 457.5 184.375H459.5ZM475.125 184.375V182.375C472.295 182.375 470 184.668 470 187.5H472H474C474 186.878 474.503 186.375 475.125 186.375V184.375ZM472 187.5H470C470 198.944 479.306 208.25 490.75 208.25V206.25V204.25C481.515 204.25 474 196.735 474 187.5H472ZM490.75 206.25V208.25C493.58 208.25 495.875 205.957 495.875 203.125H493.875H491.875C491.875 203.747 491.372 204.25 490.75 204.25V206.25ZM493.875 203.125H495.875C495.875 200.293 493.58 198 490.75 198V200V202C491.372 202 491.875 202.503 491.875 203.125H493.875ZM490.75 200V198C484.962 198 480.25 193.289 480.25 187.5H478.25H476.25C476.25 195.499 482.753 202 490.75 202V200ZM478.25 187.5H480.25C480.25 184.668 477.955 182.375 475.125 182.375V184.375V186.375C475.747 186.375 476.25 186.878 476.25 187.5H478.25Z" fill="black" mask="url(#path-11-inside-3_373_224)"/>
<defs>
<clipPath id="clip0_373_224">
<rect width="103.669" height="225.198" fill="white" transform="translate(504 102.101) rotate(-80.0195)"/>
</clipPath>
</defs>
</svg>
