<svg width="828" height="831" viewBox="0 0 828 831" fill="none" xmlns="http://www.w3.org/2000/svg">
<path d="M83.3493 184.604C78.6669 181.325 77.5186 174.863 80.9131 170.264C143.067 86.0566 234.916 28.401 338.053 9.15421C444.585 -10.7263 554.665 11.9582 644.659 72.3369C734.652 132.716 797.382 225.974 819.381 332.089C841.379 438.205 820.892 548.715 762.317 639.893C703.743 731.071 611.752 795.646 506.096 819.754C400.44 843.861 289.544 825.579 197.217 768.833C104.89 712.086 38.4955 621.4 12.2881 516.245C-13.084 414.442 1.1687 306.937 51.9154 215.402C54.687 210.403 61.0419 208.761 65.9704 211.656V211.656C70.8989 214.552 72.5338 220.889 69.7688 225.892C21.7634 312.752 8.31207 414.695 32.3737 511.239C57.2708 611.136 120.346 697.288 208.056 751.198C295.766 805.107 401.118 822.475 501.491 799.572C601.865 776.67 689.256 715.324 744.902 628.705C800.547 542.086 820.01 437.101 799.112 336.291C778.213 235.482 718.619 146.886 633.126 89.5265C547.632 32.1666 443.056 10.6164 341.85 29.5029C244.04 47.7556 156.916 102.37 97.8754 182.14C94.4748 186.735 88.0317 187.883 83.3493 184.604V184.604Z" fill="#0B409C"/>
<path d="M35.0815 583.164C89.0607 554.826 242.67 492.522 404.199 594.955C604.978 722.278 780.305 559.347 780.473 559.19L782.692 604.633C714.15 738.422 574.926 830.013 414.297 830.126H413.702C244.619 830.007 99.2549 728.527 35.0815 583.164Z" fill="#0B409C"/>
<ellipse cx="464.95" cy="558.21" rx="31.8462" ry="31.8461" fill="#0B409C"/>
<ellipse cx="611.444" cy="532.243" rx="48.9941" ry="48.994" fill="#0B409C"/>
<ellipse cx="671.217" cy="457.772" rx="14.6982" ry="14.6982" fill="#0B409C"/>
<ellipse cx="526.685" cy="484.719" rx="22.0473" ry="22.0473" fill="#0B409C"/>
<path d="M86.0829 184.83L55.5488 163.319L113.224 203.952M43.0609 204.864L62.3802 218.474L81.5112 231.952" stroke="#0B409C" stroke-width="15.6781" stroke-linecap="round" stroke-linejoin="round"/>
<path d="M147.714 381.171V278.336H167.609V381.171H147.714ZM162.342 381.171V363.471H214.711V381.171H162.342ZM254.641 382.634C248.205 382.634 242.403 381.025 237.234 377.807C232.065 374.589 228.018 370.2 225.093 364.642C222.167 359.083 220.704 352.842 220.704 345.918C220.704 338.896 222.167 332.606 225.093 327.047C228.018 321.489 232.065 317.1 237.234 313.882C242.403 310.664 248.205 309.055 254.641 309.055C259.712 309.055 264.247 310.079 268.246 312.127C272.244 314.175 275.413 317.051 277.754 320.757C280.192 324.366 281.508 328.461 281.703 333.045V358.498C281.508 363.179 280.192 367.323 277.754 370.932C275.413 374.54 272.244 377.417 268.246 379.562C264.247 381.61 259.712 382.634 254.641 382.634ZM258.152 364.934C263.516 364.934 267.855 363.179 271.171 359.668C274.487 356.06 276.145 351.428 276.145 345.771C276.145 342.066 275.365 338.799 273.804 335.97C272.341 333.045 270.245 330.802 267.514 329.242C264.881 327.584 261.76 326.755 258.152 326.755C254.641 326.755 251.521 327.584 248.79 329.242C246.157 330.802 244.06 333.045 242.5 335.97C241.037 338.799 240.306 342.066 240.306 345.771C240.306 349.575 241.037 352.939 242.5 355.865C244.06 358.693 246.157 360.936 248.79 362.594C251.521 364.154 254.641 364.934 258.152 364.934ZM275.121 381.171V362.155L278.193 344.894L275.121 327.925V310.518H294.137V381.171H275.121ZM350.293 382.634C345.222 382.634 340.639 381.561 336.543 379.416C332.447 377.271 329.18 374.345 326.742 370.639C324.304 366.933 322.987 362.789 322.792 358.205V333.045C322.987 328.461 324.304 324.366 326.742 320.757C329.278 317.051 332.593 314.175 336.689 312.127C340.785 310.079 345.32 309.055 350.293 309.055C356.827 309.055 362.678 310.664 367.847 313.882C373.016 317.1 377.063 321.489 379.988 327.047C383.011 332.606 384.523 338.896 384.523 345.918C384.523 352.842 383.011 359.083 379.988 364.642C377.063 370.2 373.016 374.589 367.847 377.807C362.678 381.025 356.827 382.634 350.293 382.634ZM311.09 381.171V275.41H330.253V327.925L327.035 344.894L330.106 362.155V381.171H311.09ZM347.075 364.934C350.586 364.934 353.658 364.154 356.291 362.594C359.021 360.936 361.118 358.693 362.581 355.865C364.141 352.939 364.921 349.575 364.921 345.771C364.921 342.066 364.141 338.799 362.581 335.97C361.118 333.045 359.021 330.802 356.291 329.242C353.56 327.584 350.44 326.755 346.929 326.755C343.418 326.755 340.297 327.584 337.567 329.242C334.934 330.802 332.837 333.045 331.277 335.97C329.814 338.799 329.082 342.066 329.082 345.771C329.082 349.575 329.814 352.939 331.277 355.865C332.837 358.693 334.982 360.936 337.713 362.594C340.444 364.154 343.564 364.934 347.075 364.934ZM416.104 343.577V325.731H438.339C441.167 325.731 443.751 325.146 446.091 323.975C448.432 322.805 450.285 321.099 451.65 318.856C453.015 316.613 453.698 313.882 453.698 310.664C453.698 307.543 453.015 304.861 451.65 302.618C450.285 300.375 448.432 298.669 446.091 297.499C443.751 296.328 441.167 295.743 438.339 295.743H416.104V277.897H441.703C448.237 277.897 454.137 279.213 459.403 281.846C464.669 284.48 468.814 288.283 471.837 293.256C474.958 298.132 476.518 303.935 476.518 310.664C476.518 317.393 474.958 323.244 471.837 328.218C468.814 333.094 464.669 336.897 459.403 339.628C454.137 342.261 448.237 343.577 441.703 343.577H416.104ZM398.55 381.171V277.897H421.516V381.171H398.55ZM539.701 382.927C531.899 382.927 524.683 381.561 518.052 378.831C511.518 376.1 505.764 372.297 500.79 367.421C495.817 362.545 491.965 356.889 489.234 350.452C486.504 343.918 485.138 336.897 485.138 329.388C485.138 321.781 486.504 314.76 489.234 308.323C491.965 301.887 495.768 296.28 500.644 291.501C505.52 286.625 511.225 282.87 517.759 280.237C524.39 277.507 531.607 276.141 539.409 276.141C547.113 276.141 554.232 277.507 560.766 280.237C567.397 282.87 573.151 286.625 578.027 291.501C583 296.28 586.852 301.936 589.583 308.47C592.314 314.906 593.679 321.927 593.679 329.534C593.679 337.043 592.314 344.065 589.583 350.599C586.852 357.035 583.049 362.691 578.173 367.567C573.297 372.346 567.543 376.1 560.912 378.831C554.378 381.561 547.308 382.927 539.701 382.927ZM539.409 362.009C545.552 362.009 550.916 360.643 555.5 357.913C560.181 355.182 563.789 351.379 566.324 346.503C568.86 341.529 570.128 335.824 570.128 329.388C570.128 324.512 569.396 320.123 567.933 316.223C566.471 312.224 564.374 308.811 561.643 305.983C558.913 303.057 555.646 300.863 551.842 299.4C548.137 297.84 543.992 297.06 539.409 297.06C533.265 297.06 527.852 298.425 523.171 301.156C518.588 303.789 515.028 307.543 512.493 312.419C509.957 317.198 508.69 322.854 508.69 329.388C508.69 334.264 509.421 338.701 510.884 342.699C512.347 346.698 514.394 350.16 517.028 353.085C519.758 355.913 523.025 358.108 526.828 359.668C530.632 361.228 534.825 362.009 539.409 362.009ZM593.791 381.171L634.75 277.897H655.522L696.041 381.171H671.759L640.747 295.451H649.085L617.635 381.171H593.791ZM617.05 362.447V343.723H673.368V362.447H617.05Z" fill="#0B409C"/>
</svg>
