<svg width="628" height="155" viewBox="0 0 628 155" fill="none" xmlns="http://www.w3.org/2000/svg">
<circle cx="63.7392" cy="91.2236" r="61.8737" stroke="white" stroke-width="3.73108"/>
<path d="M110.999 96.1982C110.999 121.956 90.1187 142.836 64.3613 142.836C38.654 142.836 16.7903 122.005 16.79 96.1982V96.1279L16.7949 96.0586C17.758 83.2178 22.9659 70.4967 30.9795 56.1504C38.9822 41.8236 49.9275 25.6373 62.4775 5.95996L64.0576 3.48145L65.627 5.9668C78.646 26.5803 89.5892 42.997 97.4365 57.208C105.295 71.4385 110.191 83.6974 110.995 96.0771L110.999 96.1377V96.1982Z" fill="url(#paint0_linear_368_681)" stroke="white" stroke-width="3.73108"/>
<path d="M19.5879 106.147C55.3441 94.0213 68.7137 123.87 108.201 109.879" stroke="white" stroke-width="3.73108"/>
<path d="M57.0746 132.508C52.2057 132.174 47.4979 130.626 43.3808 128.006C39.2636 125.385 35.8683 121.775 33.5046 117.505" stroke="white" stroke-width="3.73108" stroke-linecap="round"/>
<path d="M84.9717 70.0339C84.9717 63.0366 79.3178 57.3642 72.3434 57.3642C65.369 57.3642 59.7151 63.0366 59.7151 70.0339C59.7151 77.0312 65.369 82.7036 72.3434 82.7036C79.3178 82.7036 84.9717 77.0312 84.9717 70.0339ZM89.3431 70.0339C89.3431 79.4533 81.7321 87.0893 72.3434 87.0893C62.9548 87.0893 55.3438 79.4533 55.3438 70.0339C55.3438 60.6145 62.9548 52.9785 72.3434 52.9785C81.7321 52.9785 89.3431 60.6145 89.3431 70.0339Z" fill="white"/>
<path d="M95.6069 89.7289C96.7021 90.9122 96.6338 92.7622 95.4544 93.861C94.2749 94.9597 92.431 94.8912 91.3358 93.7079L85.0218 86.8859C83.9267 85.7027 83.995 83.8527 85.1744 82.7539C86.3538 81.6552 88.1977 81.7237 89.2929 82.907L95.6069 89.7289Z" fill="white"/>
<path d="M90.8315 86.6595C91.4703 87.3498 91.4305 88.4289 90.7425 89.0699C90.0545 89.7108 88.9789 89.6708 88.34 88.9806L82.026 82.1586C81.3872 81.4684 81.427 80.3892 82.115 79.7483C82.803 79.1073 83.8786 79.1473 84.5175 79.8375L90.8315 86.6595Z" fill="white"/>
<path d="M72.748 59.5448C73.1711 59.5191 73.5197 59.5231 73.7687 59.5343C73.8933 59.5399 73.9935 59.5473 74.0661 59.5538C74.1023 59.557 74.1316 59.5604 74.1539 59.5628C74.1649 59.5641 74.1744 59.5653 74.1818 59.5662C74.1856 59.5666 74.189 59.5668 74.1918 59.5671C74.1932 59.5673 74.1945 59.5675 74.1956 59.5676C74.1962 59.5677 74.1972 59.568 74.1975 59.5681C74.1977 59.5717 74.1902 59.6355 74.0433 60.7763L74.1989 59.5681C74.864 59.6543 75.3335 60.2652 75.2476 60.9324C75.1619 61.5976 74.5566 62.0676 73.8939 61.985L73.8906 61.9846H73.8878C73.8809 61.9838 73.8683 61.9824 73.8503 61.9808C73.8112 61.9773 73.7465 61.9723 73.6596 61.9684C73.4855 61.9605 73.2231 61.957 72.895 61.977C72.2362 62.0169 71.3288 62.1507 70.3446 62.5242C68.423 63.2535 66.0889 64.9361 64.7528 68.9576C64.5407 69.5958 63.8527 69.9408 63.2165 69.728C62.5805 69.5152 62.2366 68.8253 62.4486 68.1871C64.0267 63.4373 66.9139 61.2216 69.4851 60.2457C70.7471 59.7667 71.9042 59.596 72.748 59.5448ZM73.8939 61.985C73.8938 61.985 73.893 61.9852 73.892 61.985L73.8906 61.9846C73.8916 61.9847 73.893 61.9849 73.8939 61.985Z" fill="white"/>
<circle cx="0.310923" cy="0.310923" r="0.310923" transform="matrix(-1 0 0 1 65.916 102.105)" fill="white"/>
<circle cx="56.8996" cy="99.9289" r="0.932769" fill="white"/>
<circle cx="26.4291" cy="53.2894" r="0.310923" fill="white"/>
<circle cx="31.4032" cy="53.2909" r="1.55462" fill="white"/>
<circle cx="28.605" cy="58.5777" r="1.24369" fill="white"/>
<circle cx="0.310923" cy="0.310923" r="0.310923" transform="matrix(1 0 0 -1 20.5205 72.8789)" fill="white"/>
<circle cx="23.9406" cy="57.0207" r="0.932769" fill="white"/>
<circle cx="24.8738" cy="62.9304" r="0.621846" fill="white"/>
<circle cx="20.832" cy="65.1054" r="1.55462" fill="white"/>
<circle cx="22.3865" cy="69.1472" r="0.621846" fill="white"/>
<circle cx="19.8992" cy="116.409" r="0.621846" fill="white"/>
<circle cx="38.2435" cy="134.752" r="0.310923" fill="white"/>
<circle cx="41.9745" cy="140.35" r="1.55462" fill="white"/>
<circle cx="27.6728" cy="131.643" r="1.55462" fill="white"/>
<circle cx="87.3691" cy="138.482" r="1.55462" fill="white"/>
<circle cx="39.7982" cy="93.4007" r="1.86554" fill="white"/>
<circle cx="69.3361" cy="98.6847" r="0.932769" fill="white"/>
<circle cx="0.621846" cy="0.621846" r="0.621846" transform="matrix(-1 0 0 1 58.4541 95.8867)" fill="white"/>
<circle cx="62.1851" cy="102.105" r="1.24369" fill="white"/>
<circle cx="103.848" cy="129.466" r="1.24369" fill="white"/>
<circle cx="98.8728" cy="134.442" r="0.621846" fill="white"/>
<circle cx="92.3441" cy="137.239" r="0.310923" fill="white"/>
<circle cx="94.831" cy="133.508" r="1.55462" fill="white"/>
<circle cx="100.428" cy="127.289" r="0.310923" fill="white"/>
<circle cx="104.47" cy="120.14" r="1.24369" fill="white"/>
<circle cx="0.621846" cy="0.621846" r="0.621846" transform="matrix(-1 0 0 1 111.932 102.105)" fill="white"/>
<circle cx="109.445" cy="77.8531" r="1.24369" fill="white"/>
<circle cx="114.73" cy="96.8202" r="1.55462" fill="white"/>
<circle cx="111.932" cy="90.9117" r="1.24369" fill="white"/>
<circle cx="111.932" cy="85.9363" r="0.621846" fill="white"/>
<circle cx="0.621846" cy="0.621846" r="0.621846" transform="matrix(-1 0 0 1 111.932 79.7207)" fill="white"/>
<circle cx="108.824" cy="69.7691" r="1.24369" fill="white"/>
<circle cx="98.8728" cy="130.089" r="0.621846" fill="white"/>
<circle cx="69.9579" cy="104.904" r="1.55462" fill="white"/>
<circle cx="103.537" cy="124.181" r="0.932769" fill="white"/>
<circle cx="109.445" cy="120.14" r="1.24369" fill="white"/>
<circle cx="111.621" cy="109.257" r="0.932769" fill="white"/>
<circle cx="108.512" cy="114.853" r="1.55462" fill="white"/>
<circle cx="27.0497" cy="125.426" r="1.55462" fill="white"/>
<circle cx="37.6212" cy="138.484" r="0.932769" fill="white"/>
<circle cx="0.621846" cy="0.621846" r="0.621846" transform="matrix(1 0 0 -1 33.5801 135.062)" fill="white"/>
<circle cx="24.5627" cy="121.694" r="0.932769" fill="white"/>
<circle cx="20.521" cy="122.627" r="1.24369" fill="white"/>
<circle cx="41.0418" cy="136.93" r="0.621846" fill="white"/>
<circle cx="44.1511" cy="97.1316" r="0.621846" fill="white"/>
<circle cx="42.5971" cy="99.6195" r="0.310923" fill="white"/>
<circle cx="51.3019" cy="93.7101" r="0.932769" fill="white"/>
<circle cx="34.5126" cy="96.8202" r="1.55462" fill="white"/>
<circle cx="38.5539" cy="98.9953" r="0.621846" transform="rotate(180 38.5539 98.9953)" fill="white"/>
<circle cx="53.7904" cy="98.6859" r="0.310923" fill="white"/>
<circle cx="48.5042" cy="98.3753" r="1.86554" fill="white"/>
<path d="M151.627 126.963V62.6347H166.515V114.832H198.771V126.963H151.627ZM199.083 126.963L227.755 62.6347H242.459L271.223 126.963H255.6L232.074 70.1703H237.956L214.338 126.963H199.083ZM213.419 113.178L217.371 101.875H250.454L254.497 113.178H213.419ZM277.897 126.963V62.6347H290.211L328.165 108.951H322.191V62.6347H336.895V126.963H324.673L286.627 80.6466H292.6V126.963H277.897ZM343.66 126.963L372.332 62.6347H387.036L415.8 126.963H400.177L376.651 70.1703H382.533L358.915 126.963H343.66ZM357.996 113.178L361.948 101.875H395.031L399.074 113.178H357.996ZM452.638 128.066C447.553 128.066 442.866 127.269 438.577 125.676C434.35 124.022 430.643 121.694 427.458 118.692C424.333 115.69 421.883 112.167 420.106 108.124C418.39 104.08 417.533 99.6387 417.533 94.7988C417.533 89.9589 418.39 85.5171 420.106 81.4737C421.883 77.4302 424.364 73.9074 427.55 70.9055C430.735 67.9035 434.472 65.606 438.761 64.0131C443.05 62.359 447.767 61.5319 452.913 61.5319C458.611 61.5319 463.727 62.4815 468.26 64.3807C472.855 66.2799 476.715 69.0369 479.839 72.6515L470.282 81.4737C467.954 79.0231 465.411 77.2157 462.654 76.0517C459.897 74.8264 456.895 74.2138 453.648 74.2138C450.524 74.2138 447.675 74.7039 445.102 75.6841C442.529 76.6644 440.293 78.0734 438.393 79.9114C436.556 81.7493 435.116 83.9243 434.074 86.4361C433.094 88.948 432.604 91.7355 432.604 94.7988C432.604 97.8008 433.094 100.558 434.074 103.07C435.116 105.581 436.556 107.787 438.393 109.686C440.293 111.524 442.498 112.933 445.01 113.913C447.583 114.894 450.401 115.384 453.465 115.384C456.405 115.384 459.254 114.924 462.011 114.005C464.829 113.025 467.556 111.402 470.19 109.135L478.645 119.887C475.152 122.521 471.078 124.543 466.422 125.952C461.827 127.361 457.232 128.066 452.638 128.066ZM465.044 117.957V93.7879H478.645V119.887L465.044 117.957ZM521.054 128.066C511.925 128.066 504.788 125.523 499.642 120.438C494.495 115.353 491.922 108.093 491.922 98.6585V62.6347H506.81V98.1071C506.81 104.234 508.066 108.645 510.577 111.34C513.089 114.036 516.612 115.384 521.146 115.384C525.679 115.384 529.202 114.036 531.714 111.34C534.226 108.645 535.482 104.234 535.482 98.1071V62.6347H550.185V98.6585C550.185 108.093 547.612 115.353 542.466 120.438C537.32 125.523 530.182 128.066 521.054 128.066ZM555.096 126.963L583.768 62.6347H598.472L627.236 126.963H611.613L588.087 70.1703H593.969L570.351 126.963H555.096ZM569.432 113.178L573.384 101.875H606.467L610.51 113.178H569.432Z" fill="white"/>
<defs>
<linearGradient id="paint0_linear_368_681" x1="63.8946" y1="6.96289" x2="63.8946" y2="140.971" gradientUnits="userSpaceOnUse">
<stop stop-color="#55C7D7"/>
<stop offset="1" stop-color="#0B4F6A"/>
</linearGradient>
</defs>
</svg>
