<svg width="1204" height="777" viewBox="0 0 1204 777" fill="none" xmlns="http://www.w3.org/2000/svg">
<path d="M586.381 638V432.376H633.968V599.225H737.074V638H586.381ZM738.072 638L829.721 432.376H876.721L968.664 638H918.727L843.528 456.464H862.327L786.834 638H738.072ZM783.897 593.938L796.528 557.807H902.277L915.202 593.938H783.897ZM1022.26 638V471.151H956.465V432.376H1135.65V471.151H1069.85V638H1022.26Z" fill="white"/>
<mask id="path-2-inside-1_382_33" fill="white">
<path d="M106.405 263.247C107.786 263.243 109.167 263.238 110.59 263.234C112.834 263.238 112.834 263.238 115.124 263.243C117.511 263.239 117.511 263.239 119.945 263.235C125.206 263.228 130.467 263.233 135.728 263.238C139.395 263.237 143.063 263.235 146.73 263.234C154.424 263.231 162.118 263.235 169.812 263.242C179.636 263.25 189.46 263.245 199.285 263.236C206.865 263.231 214.445 263.233 222.026 263.236C225.645 263.237 229.265 263.236 232.885 263.233C237.969 263.229 243.053 263.235 248.137 263.243C249.611 263.24 251.086 263.237 252.606 263.234C256.851 263.247 261.087 263.321 265.331 263.44C266.954 263.486 268.576 263.531 270.248 263.578C272.681 263.705 272.681 263.705 275.164 263.834C277.37 263.937 277.37 263.937 279.62 264.042C284.677 265.211 286.569 266.968 289.701 271.058C290.59 278.055 290.61 281.467 287.417 287.722C282.125 292.088 278.191 291.734 271.424 292.388C271.411 308.256 271.448 324.123 271.546 339.991C271.59 347.362 271.618 354.732 271.607 362.103C271.596 369.236 271.631 376.367 271.696 383.5C271.712 386.201 271.714 388.903 271.698 391.604C271.606 410.235 274.48 424.691 282.086 441.695C283.285 444.643 284.477 447.594 285.655 450.55C286.747 453.186 287.842 455.82 288.94 458.454C293.215 468.812 297.353 479.187 301.232 489.7C307.371 506.264 313.957 522.659 320.441 539.089C322.158 543.443 323.875 547.797 325.591 552.151C327.433 556.821 329.275 561.491 331.117 566.16C332.545 569.782 333.972 573.403 335.399 577.025C340.174 589.134 344.965 601.237 349.796 613.325C352.167 619.26 354.531 625.198 356.895 631.136C358.034 633.993 359.177 636.848 360.323 639.702C372.275 669.472 383.097 697.966 370.088 729.602C360.347 748.901 345.144 762.909 325.025 770.97C314.703 774.239 304.32 775.532 293.502 775.574C291.575 775.585 289.647 775.596 287.661 775.607C285.552 775.612 283.443 775.616 281.333 775.62C279.09 775.629 276.847 775.639 274.604 775.65C267.263 775.682 259.922 775.698 252.581 775.713C250.041 775.719 247.502 775.726 244.962 775.732C233.022 775.761 221.082 775.783 209.142 775.795C195.418 775.81 181.696 775.85 167.973 775.912C157.328 775.958 146.683 775.98 136.038 775.985C129.698 775.989 123.359 776.002 117.019 776.041C111.042 776.077 105.065 776.083 99.0878 776.067C96.9145 776.066 94.7411 776.076 92.5679 776.097C66.5039 776.336 40.996 770.834 21.3911 752.55C9.65279 739.59 1.60321 722.795 0.30521 705.267C0.226673 704.295 0.148136 703.323 0.0672196 702.321C-0.747857 683.807 5.99131 665.884 12.5855 648.896C13.3815 646.812 14.1765 644.727 14.9706 642.642C17.6709 635.575 20.4094 628.523 23.1523 621.472C23.6558 620.176 24.1593 618.88 24.6781 617.545C31.4658 600.078 38.2994 582.629 45.1525 565.187C49.3746 554.439 53.5816 543.686 57.7798 532.929C79.516 477.247 79.516 477.247 90.6247 449.756C91.2876 448.111 91.9505 446.466 92.6335 444.771C93.1928 443.39 93.7522 442.009 94.3284 440.587C94.9668 438.941 95.6051 437.296 96.2628 435.6C96.7777 434.517 97.2927 433.434 97.8232 432.319C103.851 418.431 103.13 404.717 102.95 389.876C102.939 387.099 102.93 384.322 102.924 381.545C102.901 374.289 102.841 367.034 102.774 359.778C102.711 352.353 102.684 344.927 102.653 337.502C102.588 322.971 102.484 308.441 102.355 293.911C100.673 293.477 98.9901 293.043 97.2564 292.596C90.7939 290.584 88.8629 289.119 85.6009 283.246C84.6922 276.884 84.9063 273.765 88.1712 268.201C93.5765 263.233 99.2872 263.25 106.405 263.247ZM131.295 290.864C131.303 292.492 131.311 294.119 131.319 295.796C131.387 311.28 131.389 326.761 131.331 342.245C131.302 350.201 131.296 358.157 131.342 366.113C131.386 373.819 131.368 381.523 131.312 389.229C131.301 392.141 131.31 395.053 131.342 397.965C131.555 419.072 127.576 435.738 119.071 455.057C116.928 459.96 114.991 464.933 113.041 469.916C111.639 473.396 110.235 476.876 108.829 480.354C102.548 495.956 96.3987 511.602 90.3607 527.299C83.8306 544.271 77.1479 561.177 70.3695 578.052C61.2108 600.859 52.2571 623.739 43.4506 646.685C41.5224 651.703 39.5826 656.715 37.6399 661.727C36.5229 664.623 35.4063 667.52 34.2902 670.416C33.7917 671.697 33.2933 672.979 32.7797 674.299C26.9777 689.436 26.1011 702.175 32.2911 717.456C39.4509 731.333 49.8003 739.555 64.2326 745.138C73.4592 747.668 82.9573 747.248 92.4494 747.191C94.8004 747.2 97.1514 747.21 99.5023 747.224C105.847 747.251 112.19 747.241 118.535 747.221C125.196 747.206 131.857 747.22 138.518 747.23C149.699 747.241 160.88 747.226 172.062 747.197C184.964 747.164 197.865 747.175 210.767 747.208C221.874 747.236 232.981 747.24 244.087 747.224C250.708 747.215 257.329 747.213 263.95 747.233C270.175 747.251 276.399 747.239 282.624 747.204C284.9 747.196 287.176 747.198 289.452 747.211C301.857 747.278 312.304 746.789 323.21 740.309C324.426 739.629 325.641 738.95 326.893 738.249C337.863 730.353 345.311 718.659 347.58 705.267C350.228 679.333 337.011 654.661 327.589 631.09C326.415 628.138 325.241 625.186 324.068 622.233C321.762 616.429 319.454 610.626 317.143 604.823C313.421 595.468 309.743 586.095 306.075 576.718C300.624 562.8 295.125 548.9 289.612 535.006C288.914 533.245 288.215 531.484 287.496 529.67C283.974 520.793 280.45 511.917 276.923 503.042C270.221 486.161 263.566 469.27 257.214 452.254C254.525 445.1 251.608 438.133 248.342 431.221C245.698 424.576 245.339 418.271 245.333 411.173C245.328 409.35 245.324 407.527 245.319 405.649C245.323 402.703 245.323 402.703 245.328 399.696C245.327 397.628 245.325 395.56 245.324 393.492C245.321 389.146 245.325 384.801 245.332 380.456C245.34 374.981 245.335 369.506 245.326 364.031C245.294 340.621 245.505 317.279 247.053 293.911C245.545 292.403 245.545 292.403 244.007 290.864C238.478 290.864 232.949 290.864 227.253 290.864C227.16 293.264 227.068 295.664 226.973 298.137C226.051 322.12 225.129 346.104 224.206 370.088C206.189 382.256 188.136 394.336 169.659 405.796C167.644 407.05 167.644 407.05 165.588 408.33C156.251 414.076 156.251 414.076 151.096 415.794C150.593 374.567 150.091 333.34 149.573 290.864C143.541 290.864 137.509 290.864 131.295 290.864Z"/>
</mask>
<path d="M106.405 263.247C107.786 263.243 109.167 263.238 110.59 263.234C112.834 263.238 112.834 263.238 115.124 263.243C117.511 263.239 117.511 263.239 119.945 263.235C125.206 263.228 130.467 263.233 135.728 263.238C139.395 263.237 143.063 263.235 146.73 263.234C154.424 263.231 162.118 263.235 169.812 263.242C179.636 263.25 189.46 263.245 199.285 263.236C206.865 263.231 214.445 263.233 222.026 263.236C225.645 263.237 229.265 263.236 232.885 263.233C237.969 263.229 243.053 263.235 248.137 263.243C249.611 263.24 251.086 263.237 252.606 263.234C256.851 263.247 261.087 263.321 265.331 263.44C266.954 263.486 268.576 263.531 270.248 263.578C272.681 263.705 272.681 263.705 275.164 263.834C277.37 263.937 277.37 263.937 279.62 264.042C284.677 265.211 286.569 266.968 289.701 271.058C290.59 278.055 290.61 281.467 287.417 287.722C282.125 292.088 278.191 291.734 271.424 292.388C271.411 308.256 271.448 324.123 271.546 339.991C271.59 347.362 271.618 354.732 271.607 362.103C271.596 369.236 271.631 376.367 271.696 383.5C271.712 386.201 271.714 388.903 271.698 391.604C271.606 410.235 274.48 424.691 282.086 441.695C283.285 444.643 284.477 447.594 285.655 450.55C286.747 453.186 287.842 455.82 288.94 458.454C293.215 468.812 297.353 479.187 301.232 489.7C307.371 506.264 313.957 522.659 320.441 539.089C322.158 543.443 323.875 547.797 325.591 552.151C327.433 556.821 329.275 561.491 331.117 566.16C332.545 569.782 333.972 573.403 335.399 577.025C340.174 589.134 344.965 601.237 349.796 613.325C352.167 619.26 354.531 625.198 356.895 631.136C358.034 633.993 359.177 636.848 360.323 639.702C372.275 669.472 383.097 697.966 370.088 729.602C360.347 748.901 345.144 762.909 325.025 770.97C314.703 774.239 304.32 775.532 293.502 775.574C291.575 775.585 289.647 775.596 287.661 775.607C285.552 775.612 283.443 775.616 281.333 775.62C279.09 775.629 276.847 775.639 274.604 775.65C267.263 775.682 259.922 775.698 252.581 775.713C250.041 775.719 247.502 775.726 244.962 775.732C233.022 775.761 221.082 775.783 209.142 775.795C195.418 775.81 181.696 775.85 167.973 775.912C157.328 775.958 146.683 775.98 136.038 775.985C129.698 775.989 123.359 776.002 117.019 776.041C111.042 776.077 105.065 776.083 99.0878 776.067C96.9145 776.066 94.7411 776.076 92.5679 776.097C66.5039 776.336 40.996 770.834 21.3911 752.55C9.65279 739.59 1.60321 722.795 0.30521 705.267C0.226673 704.295 0.148136 703.323 0.0672196 702.321C-0.747857 683.807 5.99131 665.884 12.5855 648.896C13.3815 646.812 14.1765 644.727 14.9706 642.642C17.6709 635.575 20.4094 628.523 23.1523 621.472C23.6558 620.176 24.1593 618.88 24.6781 617.545C31.4658 600.078 38.2994 582.629 45.1525 565.187C49.3746 554.439 53.5816 543.686 57.7798 532.929C79.516 477.247 79.516 477.247 90.6247 449.756C91.2876 448.111 91.9505 446.466 92.6335 444.771C93.1928 443.39 93.7522 442.009 94.3284 440.587C94.9668 438.941 95.6051 437.296 96.2628 435.6C96.7777 434.517 97.2927 433.434 97.8232 432.319C103.851 418.431 103.13 404.717 102.95 389.876C102.939 387.099 102.93 384.322 102.924 381.545C102.901 374.289 102.841 367.034 102.774 359.778C102.711 352.353 102.684 344.927 102.653 337.502C102.588 322.971 102.484 308.441 102.355 293.911C100.673 293.477 98.9901 293.043 97.2564 292.596C90.7939 290.584 88.8629 289.119 85.6009 283.246C84.6922 276.884 84.9063 273.765 88.1712 268.201C93.5765 263.233 99.2872 263.25 106.405 263.247ZM131.295 290.864C131.303 292.492 131.311 294.119 131.319 295.796C131.387 311.28 131.389 326.761 131.331 342.245C131.302 350.201 131.296 358.157 131.342 366.113C131.386 373.819 131.368 381.523 131.312 389.229C131.301 392.141 131.31 395.053 131.342 397.965C131.555 419.072 127.576 435.738 119.071 455.057C116.928 459.96 114.991 464.933 113.041 469.916C111.639 473.396 110.235 476.876 108.829 480.354C102.548 495.956 96.3987 511.602 90.3607 527.299C83.8306 544.271 77.1479 561.177 70.3695 578.052C61.2108 600.859 52.2571 623.739 43.4506 646.685C41.5224 651.703 39.5826 656.715 37.6399 661.727C36.5229 664.623 35.4063 667.52 34.2902 670.416C33.7917 671.697 33.2933 672.979 32.7797 674.299C26.9777 689.436 26.1011 702.175 32.2911 717.456C39.4509 731.333 49.8003 739.555 64.2326 745.138C73.4592 747.668 82.9573 747.248 92.4494 747.191C94.8004 747.2 97.1514 747.21 99.5023 747.224C105.847 747.251 112.19 747.241 118.535 747.221C125.196 747.206 131.857 747.22 138.518 747.23C149.699 747.241 160.88 747.226 172.062 747.197C184.964 747.164 197.865 747.175 210.767 747.208C221.874 747.236 232.981 747.24 244.087 747.224C250.708 747.215 257.329 747.213 263.95 747.233C270.175 747.251 276.399 747.239 282.624 747.204C284.9 747.196 287.176 747.198 289.452 747.211C301.857 747.278 312.304 746.789 323.21 740.309C324.426 739.629 325.641 738.95 326.893 738.249C337.863 730.353 345.311 718.659 347.58 705.267C350.228 679.333 337.011 654.661 327.589 631.09C326.415 628.138 325.241 625.186 324.068 622.233C321.762 616.429 319.454 610.626 317.143 604.823C313.421 595.468 309.743 586.095 306.075 576.718C300.624 562.8 295.125 548.9 289.612 535.006C288.914 533.245 288.215 531.484 287.496 529.67C283.974 520.793 280.45 511.917 276.923 503.042C270.221 486.161 263.566 469.27 257.214 452.254C254.525 445.1 251.608 438.133 248.342 431.221C245.698 424.576 245.339 418.271 245.333 411.173C245.328 409.35 245.324 407.527 245.319 405.649C245.323 402.703 245.323 402.703 245.328 399.696C245.327 397.628 245.325 395.56 245.324 393.492C245.321 389.146 245.325 384.801 245.332 380.456C245.34 374.981 245.335 369.506 245.326 364.031C245.294 340.621 245.505 317.279 247.053 293.911C245.545 292.403 245.545 292.403 244.007 290.864C238.478 290.864 232.949 290.864 227.253 290.864C227.16 293.264 227.068 295.664 226.973 298.137C226.051 322.12 225.129 346.104 224.206 370.088C206.189 382.256 188.136 394.336 169.659 405.796C167.644 407.05 167.644 407.05 165.588 408.33C156.251 414.076 156.251 414.076 151.096 415.794C150.593 374.567 150.091 333.34 149.573 290.864C143.541 290.864 137.509 290.864 131.295 290.864Z" fill="white" stroke="black" stroke-width="6" mask="url(#path-2-inside-1_382_33)"/>
<path d="M180.584 496.231C189.921 505.262 223.267 540.176 215.375 570.481C206.299 605.332 208.667 610.571 216.888 611.395C216.888 611.395 224.451 614.425 228.989 602.303C233.512 590.221 233.527 579.643 233.527 579.573C250.167 602.303 255.882 621.311 257.73 650.792C257.73 694.735 221.426 723.526 185.122 723.526C162.432 726.557 111 707.831 111 650.792C114.025 599.272 166.97 571.996 180.584 496.231ZM185.066 608.302C165.128 639.622 150.604 659.352 149.127 679.082C149.127 698.695 165.736 714.595 185.312 714.595C204.889 714.595 220.759 698.695 220.759 679.082C219.528 660.092 205.744 641.102 185.066 608.302Z" fill="white"/>
<path d="M189.185 673.927C194.958 677.194 199.554 681.059 202.337 684.605C203.732 686.381 204.616 688.007 205.008 689.377C205.398 690.74 205.266 691.701 204.873 692.365C204.48 693.029 203.693 693.619 202.29 693.968C200.88 694.318 198.997 694.378 196.727 694.081C192.195 693.488 186.478 691.517 180.704 688.25C174.931 684.984 170.334 681.118 167.551 677.572C166.157 675.796 165.273 674.17 164.881 672.8C164.491 671.437 164.623 670.476 165.016 669.812C165.41 669.148 166.196 668.558 167.599 668.21C169.009 667.86 170.891 667.799 173.162 668.096C177.693 668.689 183.411 670.66 189.185 673.927Z" stroke="black" stroke-width="3.46608"/>
<path d="M193.437 681.049C193.47 687.561 192.382 693.38 190.662 697.51C189.801 699.578 188.814 701.141 187.805 702.162C186.801 703.177 185.874 703.566 185.057 703.57C184.24 703.574 183.309 703.194 182.296 702.189C181.276 701.177 180.274 699.624 179.392 697.564C177.63 693.451 176.482 687.643 176.449 681.131C176.417 674.619 177.506 668.8 179.226 664.67C180.087 662.602 181.073 661.038 182.083 660.017C183.086 659.002 184.013 658.614 184.83 658.61C185.647 658.606 186.579 658.985 187.592 659.99C188.612 661.002 189.614 662.556 190.496 664.616C192.258 668.729 193.405 674.537 193.437 681.049Z" stroke="black" stroke-width="3.46608"/>
<path d="M189.155 688.264C183.369 691.51 177.643 693.459 173.109 694.035C170.837 694.324 168.955 694.256 167.546 693.901C166.144 693.547 165.36 692.954 164.97 692.289C164.58 691.623 164.451 690.662 164.847 689.301C165.244 687.932 166.135 686.31 167.536 684.539C170.333 681.004 174.945 677.155 180.731 673.91C186.517 670.665 192.243 668.715 196.776 668.139C199.047 667.851 200.929 667.918 202.338 668.273C203.74 668.627 204.524 669.22 204.914 669.885C205.305 670.551 205.433 671.512 205.038 672.873C204.64 674.242 203.751 675.864 202.349 677.635C199.552 681.171 194.941 685.019 189.155 688.264Z" stroke="black" stroke-width="3.46608"/>
<circle cx="184.944" cy="681.089" r="4.04376" fill="white" stroke="black" stroke-width="1.15536"/>
<g clip-path="url(#clip0_382_33)">
<path d="M197.969 100.601L214.195 15.7575C215.198 10.5153 219.987 7.00403 224.872 7.80937L224.874 7.80984C229.762 8.60131 232.965 13.3954 231.963 18.6344L215.737 103.477C214.735 108.712 209.949 112.217 205.057 111.425C200.17 110.634 196.966 105.845 197.969 100.601Z" fill="white" stroke="black" stroke-width="2"/>
<mask id="path-9-inside-2_382_33" fill="white">
<path d="M235.332 84.1051L250.68 86.4261L254.827 65.6288L259.605 42.3953L244.752 40.1357L228.513 37.3887L231.143 23.6384L396.264 50.3743C415.769 53.5328 428.452 72.7423 424.556 93.1108C420.661 113.48 401.612 127.552 382.107 124.394L216.986 97.6582L220.009 81.8543L235.332 84.1051ZM334.58 67.1682C333.92 70.6181 336.063 73.8489 339.365 74.3837C342.668 74.9185 345.881 72.5548 346.541 69.1049C347.2 65.655 345.058 62.4251 341.755 61.8903C338.452 61.3556 335.24 63.7184 334.58 67.1682ZM291.499 82.1191C290.478 87.4581 293.793 92.4577 298.905 93.2856C304.016 94.113 308.988 90.4553 310.01 85.1163C311.03 79.7776 307.714 74.7783 302.603 73.9506C297.492 73.1233 292.52 76.7805 291.499 82.1191Z"/>
</mask>
<path d="M235.332 84.1051L250.68 86.4261L254.827 65.6288L259.605 42.3953L244.752 40.1357L228.513 37.3887L231.143 23.6384L396.264 50.3743C415.769 53.5328 428.452 72.7423 424.556 93.1108C420.661 113.48 401.612 127.552 382.107 124.394L216.986 97.6582L220.009 81.8543L235.332 84.1051ZM334.58 67.1682C333.92 70.6181 336.063 73.8489 339.365 74.3837C342.668 74.9185 345.881 72.5548 346.541 69.1049C347.2 65.655 345.058 62.4251 341.755 61.8903C338.452 61.3556 335.24 63.7184 334.58 67.1682ZM291.499 82.1191C290.478 87.4581 293.793 92.4577 298.905 93.2856C304.016 94.113 308.988 90.4553 310.01 85.1163C311.03 79.7776 307.714 74.7783 302.603 73.9506C297.492 73.1233 292.52 76.7805 291.499 82.1191Z" fill="white"/>
<path d="M235.332 84.1051L235.687 82.1383L235.679 82.1371L235.332 84.1051ZM250.68 86.4261L250.325 88.3928L252.267 88.6864L252.65 86.7611L250.68 86.4261ZM254.827 65.6288L252.859 65.2821L252.857 65.2938L254.827 65.6288ZM259.605 42.3953L261.573 42.742L261.985 40.7367L259.961 40.4288L259.605 42.3953ZM244.752 40.1357L244.363 42.0969L244.379 42.0997L244.395 42.1022L244.752 40.1357ZM228.513 37.3887L226.54 37.0692L226.167 39.0189L228.124 39.3499L228.513 37.3887ZM231.143 23.6384L231.519 21.6749L229.545 21.3554L229.169 23.3189L231.143 23.6384ZM396.264 50.3743L396.639 48.4108L396.639 48.4108L396.264 50.3743ZM424.556 93.1108L426.53 93.4304L426.53 93.4304L424.556 93.1108ZM382.107 124.394L381.732 126.358L381.732 126.358L382.107 124.394ZM216.986 97.6582L215.013 97.3387L214.637 99.3022L216.611 99.6217L216.986 97.6582ZM220.009 81.8543L220.355 79.8863L218.405 79.5999L218.035 81.5347L220.009 81.8543ZM334.58 67.1682L332.606 66.8486L332.606 66.8486L334.58 67.1682ZM339.365 74.3837L338.99 76.3472L338.99 76.3472L339.365 74.3837ZM346.541 69.1049L348.514 69.4244L348.514 69.4244L346.541 69.1049ZM341.755 61.8903L342.13 59.9268L342.13 59.9268L341.755 61.8903ZM291.499 82.1191L289.525 81.7993L289.525 81.7995L291.499 82.1191ZM298.905 93.2856L298.529 95.249L298.529 95.2491L298.905 93.2856ZM310.01 85.1163L311.983 85.4358L311.983 85.4357L310.01 85.1163ZM302.603 73.9506L302.978 71.9871L302.978 71.9871L302.603 73.9506ZM235.332 84.1051L234.977 86.0718L250.325 88.3928L250.68 86.4261L251.035 84.4593L235.687 82.1383L235.332 84.1051ZM250.68 86.4261L252.65 86.7611L256.798 65.9638L254.827 65.6288L252.857 65.2938L248.709 86.0911L250.68 86.4261ZM254.827 65.6288L256.796 65.9755L261.573 42.742L259.605 42.3953L257.637 42.0486L252.859 65.2821L254.827 65.6288ZM259.605 42.3953L259.961 40.4288L245.109 38.1692L244.752 40.1357L244.395 42.1022L259.248 44.3618L259.605 42.3953ZM244.752 40.1357L245.141 38.1745L228.903 35.4275L228.513 37.3887L228.124 39.3499L244.363 42.0969L244.752 40.1357ZM228.513 37.3887L230.487 37.7083L233.117 23.958L231.143 23.6384L229.169 23.3189L226.54 37.0692L228.513 37.3887ZM231.143 23.6384L230.767 25.6019L395.888 52.3378L396.264 50.3743L396.639 48.4108L231.519 21.6749L231.143 23.6384ZM396.264 50.3743L395.888 52.3378C414.209 55.3046 426.289 73.4113 422.583 92.7913L424.556 93.1108L426.53 93.4304C430.614 72.0732 417.328 51.761 396.639 48.4108L396.264 50.3743ZM424.556 93.1108L422.583 92.7913C418.876 112.172 400.804 125.397 382.483 122.431L382.107 124.394L381.732 126.358C402.421 129.707 422.445 114.788 426.53 93.4304L424.556 93.1108ZM382.107 124.394L382.483 122.431L217.362 95.6947L216.986 97.6582L216.611 99.6217L381.732 126.358L382.107 124.394ZM216.986 97.6582L218.96 97.9778L221.982 82.1738L220.009 81.8543L218.035 81.5347L215.013 97.3387L216.986 97.6582ZM220.009 81.8543L219.662 83.8223L234.986 86.0731L235.332 84.1051L235.679 82.1371L220.355 79.8863L220.009 81.8543ZM334.58 67.1682L332.606 66.8486C331.757 71.2916 334.508 75.6214 338.99 76.3472L339.365 74.3837L339.741 72.4202C337.618 72.0764 336.083 69.9445 336.553 67.4878L334.58 67.1682ZM339.365 74.3837L338.99 76.3472C343.472 77.073 347.664 73.8674 348.514 69.4244L346.541 69.1049L344.567 68.7853C344.097 71.2421 341.864 72.764 339.741 72.4202L339.365 74.3837ZM346.541 69.1049L348.514 69.4244C349.364 64.9811 346.612 60.6525 342.13 59.9268L341.755 61.8903L341.379 63.8538C343.503 64.1977 345.037 66.3289 344.567 68.7854L346.541 69.1049ZM341.755 61.8903L342.13 59.9268C337.648 59.2012 333.456 62.4054 332.606 66.8486L334.58 67.1682L336.553 67.4878C337.023 65.0314 339.256 63.51 341.379 63.8538L341.755 61.8903ZM291.499 82.1191L289.525 81.7995C288.314 88.1316 292.238 94.2302 298.529 95.249L298.905 93.2856L299.28 91.3221C295.349 90.6852 292.641 86.7845 293.472 82.4386L291.499 82.1191ZM298.905 93.2856L298.529 95.2491C304.82 96.2674 310.772 91.7682 311.983 85.4358L310.01 85.1163L308.036 84.7967C307.205 89.1424 303.212 91.9585 299.28 91.322L298.905 93.2856ZM310.01 85.1163L311.983 85.4357C313.194 79.1036 309.268 73.0058 302.978 71.9871L302.603 73.9506L302.227 75.9141C306.159 76.5509 308.867 80.4515 308.036 84.7969L310.01 85.1163ZM302.603 73.9506L302.978 71.9871C296.688 70.9689 290.737 75.4678 289.525 81.7993L291.499 82.1191L293.472 82.4388C294.304 78.0933 298.295 75.2777 302.227 75.9141L302.603 73.9506Z" fill="black" mask="url(#path-9-inside-2_382_33)"/>
</g>
<mask id="path-11-inside-3_382_33" fill="white">
<path d="M185.812 134.262C187.031 133.043 188.969 133.043 190.188 134.262C191.656 135.699 225.5 169.543 225.5 189.605C225.5 210.293 208.687 227.105 188 227.105C167.313 227.105 150.5 210.293 150.5 189.605C150.5 169.543 184.344 135.699 185.812 134.262ZM166.125 189.605C164.399 189.605 163 191.003 163 192.73C163 203.07 171.411 211.48 181.75 211.48C183.476 211.48 184.875 210.083 184.875 208.355C184.875 206.628 183.476 205.23 181.75 205.23C174.857 205.23 169.25 199.625 169.25 192.73C169.25 191.003 167.851 189.605 166.125 189.605Z"/>
</mask>
<path d="M185.812 134.262C187.031 133.043 188.969 133.043 190.188 134.262C191.656 135.699 225.5 169.543 225.5 189.605C225.5 210.293 208.687 227.105 188 227.105C167.313 227.105 150.5 210.293 150.5 189.605C150.5 169.543 184.344 135.699 185.812 134.262ZM166.125 189.605C164.399 189.605 163 191.003 163 192.73C163 203.07 171.411 211.48 181.75 211.48C183.476 211.48 184.875 210.083 184.875 208.355C184.875 206.628 183.476 205.23 181.75 205.23C174.857 205.23 169.25 199.625 169.25 192.73C169.25 191.003 167.851 189.605 166.125 189.605Z" fill="white"/>
<path d="M185.812 134.262L187.211 135.691L187.219 135.684L187.227 135.676L185.812 134.262ZM190.188 134.262L188.773 135.676L188.781 135.684L188.789 135.691L190.188 134.262ZM225.5 189.605H227.5V189.605H225.5ZM150.5 189.605H148.5V189.605H150.5ZM185.812 134.262L187.227 135.676C187.664 135.238 188.336 135.238 188.773 135.676L190.188 134.262L191.602 132.848C189.602 130.848 186.398 130.848 184.398 132.848L185.812 134.262ZM190.188 134.262L188.789 135.691C189.487 136.375 198.246 145.125 206.814 156.175C211.099 161.701 215.301 167.757 218.423 173.634C221.569 179.559 223.5 185.084 223.5 189.605H225.5H227.5C227.5 184.096 225.2 177.867 221.955 171.758C218.686 165.603 214.335 159.346 209.975 153.724C201.254 142.477 192.357 133.586 191.586 132.832L190.188 134.262ZM225.5 189.605H223.5C223.5 209.188 207.583 225.105 188 225.105V227.105V229.105C209.792 229.105 227.5 211.398 227.5 189.605H225.5ZM188 227.105V225.105C168.417 225.105 152.5 209.188 152.5 189.605H150.5H148.5C148.5 211.398 166.208 229.105 188 229.105V227.105ZM150.5 189.605H152.5C152.5 185.084 154.431 179.559 157.577 173.634C160.699 167.757 164.901 161.701 169.186 156.175C177.754 145.125 186.513 136.375 187.211 135.691L185.812 134.262L184.414 132.832C183.643 133.586 174.746 142.477 166.025 153.724C161.665 159.346 157.314 165.603 154.045 171.758C150.8 177.867 148.5 184.096 148.5 189.605H150.5ZM166.125 189.605V187.605C163.295 187.605 161 189.898 161 192.73H163H165C165 192.109 165.503 191.605 166.125 191.605V189.605ZM163 192.73H161C161 204.174 170.306 213.48 181.75 213.48V211.48V209.48C172.515 209.48 165 201.965 165 192.73H163ZM181.75 211.48V213.48C184.58 213.48 186.875 211.188 186.875 208.355H184.875H182.875C182.875 208.977 182.372 209.48 181.75 209.48V211.48ZM184.875 208.355H186.875C186.875 205.523 184.58 203.23 181.75 203.23V205.23V207.23C182.372 207.23 182.875 207.734 182.875 208.355H184.875ZM181.75 205.23V203.23C175.962 203.23 171.25 198.52 171.25 192.73H169.25H167.25C167.25 200.729 173.753 207.23 181.75 207.23V205.23ZM169.25 192.73H171.25C171.25 189.898 168.955 187.605 166.125 187.605V189.605V191.605C166.747 191.605 167.25 192.109 167.25 192.73H169.25Z" fill="black" mask="url(#path-11-inside-3_382_33)"/>
<defs>
<clipPath id="clip0_382_33">
<rect width="107.541" height="222.506" fill="white" transform="matrix(0.187765 -0.981753 0.98678 0.159776 194.999 110.809)"/>
</clipPath>
</defs>
</svg>
