<svg width="1076" height="324" viewBox="0 0 1076 324" fill="none" xmlns="http://www.w3.org/2000/svg">
<path d="M72.432 257V77.032H107.248V257H72.432ZM98.032 257V226.024H189.68V257H98.032ZM259.56 259.56C248.296 259.56 238.141 256.744 229.096 251.112C220.051 245.48 212.968 237.8 207.848 228.072C202.728 218.344 200.168 207.421 200.168 195.304C200.168 183.016 202.728 172.008 207.848 162.28C212.968 152.552 220.051 144.872 229.096 139.24C238.141 133.608 248.296 130.792 259.56 130.792C268.435 130.792 276.371 132.584 283.368 136.168C290.365 139.752 295.912 144.787 300.008 151.272C304.275 157.587 306.579 164.755 306.92 172.776V217.32C306.579 225.512 304.275 232.765 300.008 239.08C295.912 245.395 290.365 250.429 283.368 254.184C276.371 257.768 268.435 259.56 259.56 259.56ZM265.704 228.584C275.091 228.584 282.685 225.512 288.488 219.368C294.291 213.053 297.192 204.947 297.192 195.048C297.192 188.563 295.827 182.845 293.096 177.896C290.536 172.776 286.867 168.851 282.088 166.12C277.48 163.219 272.019 161.768 265.704 161.768C259.56 161.768 254.099 163.219 249.32 166.12C244.712 168.851 241.043 172.776 238.312 177.896C235.752 182.845 234.472 188.563 234.472 195.048C234.472 201.704 235.752 207.592 238.312 212.712C241.043 217.661 244.712 221.587 249.32 224.488C254.099 227.219 259.56 228.584 265.704 228.584ZM295.4 257V223.72L300.776 193.512L295.4 163.816V133.352H328.68V257H295.4ZM426.956 259.56C418.081 259.56 410.06 257.683 402.892 253.928C395.724 250.173 390.007 245.053 385.74 238.568C381.473 232.083 379.169 224.829 378.828 216.808V172.776C379.169 164.755 381.473 157.587 385.74 151.272C390.177 144.787 395.98 139.752 403.148 136.168C410.316 132.584 418.252 130.792 426.956 130.792C438.391 130.792 448.631 133.608 457.676 139.24C466.721 144.872 473.804 152.552 478.924 162.28C484.215 172.008 486.86 183.016 486.86 195.304C486.86 207.421 484.215 218.344 478.924 228.072C473.804 237.8 466.721 245.48 457.676 251.112C448.631 256.744 438.391 259.56 426.956 259.56ZM358.348 257V71.912H391.884V163.816L386.252 193.512L391.628 223.72V257H358.348ZM421.324 228.584C427.468 228.584 432.844 227.219 437.452 224.488C442.231 221.587 445.9 217.661 448.46 212.712C451.191 207.592 452.556 201.704 452.556 195.048C452.556 188.563 451.191 182.845 448.46 177.896C445.9 172.776 442.231 168.851 437.452 166.12C432.673 163.219 427.212 161.768 421.068 161.768C414.924 161.768 409.463 163.219 404.684 166.12C400.076 168.851 396.407 172.776 393.676 177.896C391.116 182.845 389.836 188.563 389.836 195.048C389.836 201.704 391.116 207.592 393.676 212.712C396.407 217.661 400.161 221.587 404.94 224.488C409.719 227.219 415.18 228.584 421.324 228.584Z" fill="#0B7A9C"/>
<path d="M538.032 190.184V161.768H579.76C585.221 161.768 590.171 160.659 594.608 158.44C599.045 156.221 602.544 153.064 605.104 148.968C607.664 144.701 608.944 139.581 608.944 133.608C608.944 127.805 607.664 122.771 605.104 118.504C602.544 114.237 599.045 110.995 594.608 108.776C590.171 106.557 585.221 105.448 579.76 105.448H538.032V77.032H583.344C594.779 77.032 605.019 79.336 614.064 83.944C623.28 88.552 630.533 95.1227 635.824 103.656C641.115 112.019 643.76 122.003 643.76 133.608C643.76 145.213 641.115 155.283 635.824 163.816C630.533 172.179 623.28 178.664 614.064 183.272C605.019 187.88 594.779 190.184 583.344 190.184H538.032ZM512.432 257V77.032H547.248V257H512.432ZM845.12 257L917.568 77.032H945.984L1018.18 257H981.056L925.248 109.288H938.048L881.472 257H845.12ZM883.52 223.464V194.28H980.288V223.464H883.52Z" fill="#0B409C"/>
<path d="M695.41 198.315C704.528 193.62 729.165 184.022 755.052 200.438C787.727 221.159 816.259 194.621 816.259 194.621L816.267 194.817C805.653 218.064 782.204 234.22 754.979 234.22C729.142 234.22 706.703 219.669 695.41 198.315Z" fill="#0B7A9C"/>
<path d="M837.383 129.584C842.439 127.227 848.501 129.402 850.341 134.668C857.11 154.027 857.85 175.075 852.327 194.991C845.9 218.165 831.415 238.285 811.478 251.733C791.541 265.181 767.46 271.073 743.566 268.351C719.673 265.628 697.534 254.47 681.133 236.882C664.732 219.294 655.145 196.431 654.096 172.406C653.047 148.38 660.605 124.769 675.411 105.818C690.217 86.8677 711.298 73.8221 734.864 69.0276C755.117 64.9071 776.062 67.1134 794.902 75.2159C800.026 77.4197 801.774 83.6184 799.069 88.4971L793.251 98.9931C790.547 103.872 784.415 105.556 779.194 103.595C767.154 99.0722 754.018 97.991 741.284 100.582C725.231 103.848 710.871 112.734 700.785 125.643C690.7 138.552 685.552 154.635 686.266 171.001C686.981 187.367 693.511 202.94 704.683 214.921C715.855 226.902 730.936 234.503 747.212 236.357C763.488 238.211 779.891 234.198 793.472 225.037C807.053 215.877 816.919 202.171 821.297 186.386C824.77 173.863 824.608 160.684 820.936 148.358C819.344 143.012 821.452 137.013 826.507 134.656L837.383 129.584Z" fill="#0B409C"/>
<circle cx="726.249" cy="162.411" r="9.6287" fill="#0B7A9C"/>
<circle cx="770.541" cy="154.56" r="14.8134" fill="#0B7A9C"/>
<circle cx="788.613" cy="132.044" r="4.44402" fill="#0B7A9C"/>
<circle cx="744.913" cy="140.192" r="6.66602" fill="#0B7A9C"/>
</svg>
