<svg width="736" height="245" viewBox="0 0 736 245" fill="none" xmlns="http://www.w3.org/2000/svg">
<path d="M14.0796 194V57.3368H40.518V194H14.0796ZM33.5196 194V170.478H103.115V194H33.5196ZM156.18 195.944C147.626 195.944 139.915 193.806 133.046 189.529C126.178 185.252 120.799 179.42 116.911 172.033C113.023 164.646 111.079 156.351 111.079 147.15C111.079 137.818 113.023 129.459 116.911 122.072C120.799 114.685 126.178 108.853 133.046 104.576C139.915 100.299 147.626 98.1608 156.18 98.1608C162.919 98.1608 168.946 99.5216 174.259 102.243C179.573 104.965 183.785 108.788 186.895 113.713C190.135 118.508 191.885 123.951 192.144 130.042V163.868C191.885 170.089 190.135 175.597 186.895 180.392C183.785 185.187 179.573 189.01 174.259 191.862C168.946 194.583 162.919 195.944 156.18 195.944ZM160.846 172.422C167.974 172.422 173.741 170.089 178.147 165.423C182.554 160.628 184.757 154.472 184.757 146.955C184.757 142.03 183.72 137.689 181.646 133.93C179.702 130.042 176.916 127.062 173.287 124.988C169.788 122.785 165.641 121.683 160.846 121.683C156.18 121.683 152.033 122.785 148.404 124.988C144.905 127.062 142.118 130.042 140.045 133.93C138.101 137.689 137.129 142.03 137.129 146.955C137.129 152.01 138.101 156.481 140.045 160.369C142.118 164.127 144.905 167.108 148.404 169.311C152.033 171.385 156.18 172.422 160.846 172.422ZM183.396 194V168.728L187.478 145.789L183.396 123.238V100.105H208.668V194H183.396ZM283.296 195.944C276.557 195.944 270.466 194.518 265.023 191.667C259.579 188.816 255.238 184.928 251.998 180.003C248.758 175.078 247.008 169.57 246.749 163.479V130.042C247.008 123.951 248.758 118.508 251.998 113.713C255.367 108.788 259.774 104.965 265.217 102.243C270.66 99.5216 276.687 98.1608 283.296 98.1608C291.979 98.1608 299.755 100.299 306.624 104.576C313.493 108.853 318.871 114.685 322.759 122.072C326.777 129.459 328.786 137.818 328.786 147.15C328.786 156.351 326.777 164.646 322.759 172.033C318.871 179.42 313.493 185.252 306.624 189.529C299.755 193.806 291.979 195.944 283.296 195.944ZM231.197 194V53.4488H256.663V123.238L252.387 145.789L256.469 168.728V194H231.197ZM279.019 172.422C283.685 172.422 287.767 171.385 291.267 169.311C294.895 167.108 297.682 164.127 299.626 160.369C301.699 156.481 302.736 152.01 302.736 146.955C302.736 142.03 301.699 137.689 299.626 133.93C297.682 130.042 294.895 127.062 291.267 124.988C287.638 122.785 283.491 121.683 278.825 121.683C274.159 121.683 270.012 122.785 266.383 124.988C262.884 127.062 260.098 130.042 258.024 133.93C256.08 137.689 255.108 142.03 255.108 146.955C255.108 152.01 256.08 156.481 258.024 160.369C260.098 164.127 262.949 167.108 266.578 169.311C270.207 171.385 274.354 172.422 279.019 172.422ZM367.645 143.262V121.683H399.332C403.479 121.683 407.237 120.841 410.607 119.156C413.977 117.471 416.633 115.074 418.577 111.963C420.521 108.723 421.493 104.835 421.493 100.299C421.493 95.8928 420.521 92.0696 418.577 88.8296C416.633 85.5896 413.977 83.1272 410.607 81.4424C407.237 79.7576 403.479 78.9152 399.332 78.9152H367.645V57.3368H402.053C410.737 57.3368 418.513 59.0864 425.381 62.5856C432.38 66.0848 437.888 71.0744 441.905 77.5544C445.923 83.9048 447.932 91.4864 447.932 100.299C447.932 109.112 445.923 116.758 441.905 123.238C437.888 129.589 432.38 134.514 425.381 138.013C418.513 141.512 410.737 143.262 402.053 143.262H367.645ZM348.205 194V57.3368H374.643V194H348.205ZM600.84 194L655.855 57.3368H677.433L732.254 194H704.066L661.687 81.8312H671.407L628.444 194H600.84ZM630 168.534V146.372H703.483V168.534H630Z" fill="white"/>
<path d="M487.072 149.837C493.996 146.271 512.705 138.982 532.363 151.449C557.176 167.184 578.842 147.031 578.842 147.031L578.849 147.18C570.788 164.833 552.981 177.102 532.308 177.102C512.687 177.102 495.648 166.052 487.072 149.837Z" fill="white"/>
<path d="M594.882 97.6444C598.721 95.8542 603.324 97.5063 604.722 101.505C609.862 116.206 610.423 132.189 606.229 147.313C601.349 164.91 590.35 180.189 575.21 190.401C560.071 200.613 541.784 205.088 523.64 203.02C505.495 200.953 488.684 192.479 476.229 179.124C463.775 165.768 456.495 148.406 455.698 130.162C454.901 111.918 460.641 93.9876 471.884 79.5972C483.127 65.2067 499.136 55.3001 517.031 51.6593C532.41 48.5304 548.316 50.2058 562.622 56.3586C566.514 58.0321 567.841 62.7392 565.787 66.444L561.369 74.4144C559.315 78.1192 554.659 79.3983 550.694 77.9088C541.552 74.4745 531.576 73.6534 521.906 75.6208C509.716 78.1009 498.811 84.8491 491.153 94.6516C483.494 104.454 479.585 116.668 480.127 129.095C480.67 141.523 485.629 153.349 494.113 162.447C502.596 171.545 514.048 177.317 526.408 178.725C538.767 180.133 551.224 177.085 561.537 170.129C571.849 163.173 579.342 152.765 582.666 140.778C585.303 131.269 585.18 121.261 582.392 111.901C581.183 107.841 582.784 103.286 586.623 101.496L594.882 97.6444Z" fill="white"/>
<circle cx="510.489" cy="122.572" r="7.31179" fill="white"/>
<circle cx="544.124" cy="116.609" r="11.2489" fill="white"/>
<ellipse cx="557.847" cy="99.5124" rx="3.37467" ry="3.37467" fill="white"/>
<ellipse cx="524.663" cy="105.7" rx="5.06201" ry="5.06201" fill="white"/>
</svg>
