<svg width="435" height="771" viewBox="0 0 435 771" fill="none" xmlns="http://www.w3.org/2000/svg">
<mask id="path-1-inside-1_373_163" fill="white">
<path d="M106.405 258.016C107.786 258.012 109.167 258.008 110.59 258.003C112.834 258.008 112.834 258.008 115.124 258.013C117.511 258.009 117.511 258.009 119.945 258.005C125.206 257.998 130.467 258.002 135.728 258.008C139.395 258.006 143.063 258.005 146.73 258.003C154.424 258.001 162.118 258.004 169.812 258.011C179.636 258.02 189.46 258.015 199.285 258.006C206.865 258 214.445 258.002 222.026 258.006C225.645 258.007 229.265 258.006 232.885 258.002C237.969 257.998 243.053 258.004 248.137 258.013C249.611 258.01 251.086 258.007 252.606 258.003C256.851 258.016 261.087 258.09 265.331 258.21C266.954 258.255 268.576 258.301 270.248 258.348C272.681 258.474 272.681 258.474 275.164 258.603C277.37 258.706 277.37 258.706 279.62 258.812C284.677 259.98 286.569 261.737 289.701 265.828C290.59 272.825 290.61 276.236 287.417 282.491C282.125 286.858 278.191 286.504 271.424 287.157C271.411 303.025 271.448 318.893 271.546 334.761C271.59 342.132 271.618 349.502 271.607 356.873C271.596 364.005 271.631 371.137 271.696 378.27C271.712 380.971 271.714 383.672 271.698 386.374C271.606 405.005 274.48 419.46 282.086 436.464C283.285 439.412 284.477 442.363 285.655 445.32C286.747 447.955 287.842 450.59 288.94 453.223C293.215 463.581 297.353 473.957 301.232 484.47C307.371 501.033 313.957 517.428 320.441 533.859C322.158 538.213 323.875 542.567 325.591 546.921C327.433 551.591 329.275 556.26 331.117 560.93C332.545 564.551 333.972 568.173 335.399 571.794C340.174 583.904 344.965 596.007 349.796 608.095C352.167 614.03 354.531 619.968 356.895 625.906C358.034 628.762 359.177 631.618 360.323 634.472C372.275 664.242 383.097 692.736 370.088 724.372C360.347 743.671 345.144 757.679 325.025 765.739C314.703 769.008 304.32 770.301 293.502 770.344C291.575 770.355 289.647 770.366 287.661 770.377C285.552 770.381 283.443 770.385 281.333 770.389C279.09 770.399 276.847 770.409 274.604 770.42C267.263 770.452 259.922 770.467 252.581 770.483C250.041 770.489 247.502 770.495 244.962 770.501C233.022 770.53 221.082 770.552 209.142 770.565C195.418 770.58 181.696 770.62 167.973 770.681C157.328 770.728 146.683 770.75 136.038 770.755C129.698 770.759 123.359 770.772 117.019 770.811C111.042 770.846 105.065 770.852 99.0878 770.837C96.9145 770.836 94.7411 770.845 92.5679 770.867C66.5039 771.106 40.996 765.604 21.3911 747.32C9.65279 734.36 1.60321 717.564 0.30521 700.037C0.226673 699.065 0.148136 698.092 0.0672196 697.091C-0.747857 678.577 5.99131 660.653 12.5855 643.666C13.3815 641.581 14.1765 639.497 14.9706 637.412C17.6709 630.345 20.4094 623.293 23.1523 616.242C23.6558 614.946 24.1593 613.65 24.6781 612.315C31.4658 594.847 38.2994 577.398 45.1525 559.957C49.3746 549.209 53.5816 538.455 57.7798 527.698C79.516 472.016 79.516 472.016 90.6247 444.525C91.2876 442.88 91.9505 441.236 92.6335 439.541C93.1928 438.16 93.7522 436.779 94.3284 435.356C94.9668 433.711 95.6051 432.065 96.2628 430.37C96.7777 429.287 97.2927 428.204 97.8232 427.088C103.851 413.2 103.13 399.487 102.95 384.646C102.939 381.869 102.93 379.092 102.924 376.315C102.901 369.059 102.841 361.803 102.774 354.547C102.711 347.122 102.684 339.697 102.653 332.271C102.588 317.741 102.484 303.211 102.355 288.681C100.673 288.247 98.9901 287.813 97.2564 287.365C90.7939 285.354 88.8629 283.889 85.6009 278.016C84.6922 271.654 84.9063 268.535 88.1712 262.971C93.5765 258.003 99.2872 258.02 106.405 258.016ZM131.295 285.634C131.303 287.261 131.311 288.889 131.319 290.566C131.387 306.049 131.389 321.531 131.331 337.014C131.302 344.971 131.296 352.926 131.342 360.883C131.386 368.589 131.368 376.293 131.312 383.999C131.301 386.91 131.31 389.823 131.342 392.734C131.555 413.841 127.576 430.508 119.071 449.826C116.928 454.729 114.991 459.702 113.041 464.685C111.639 468.166 110.235 471.645 108.829 475.124C102.548 490.725 96.3987 506.371 90.3607 522.068C83.8306 539.041 77.1479 555.946 70.3695 572.821C61.2108 595.629 52.2571 618.509 43.4506 641.455C41.5224 646.472 39.5826 651.485 37.6399 656.497C36.5229 659.393 35.4063 662.289 34.2902 665.186C33.7917 666.467 33.2933 667.748 32.7797 669.068C26.9777 684.206 26.1011 696.945 32.2911 712.225C39.4509 726.102 49.8003 734.325 64.2326 739.907C73.4592 742.437 82.9573 742.017 92.4494 741.961C94.8004 741.969 97.1514 741.98 99.5023 741.993C105.847 742.021 112.19 742.01 118.535 741.991C125.196 741.975 131.857 741.99 138.518 741.999C149.699 742.01 160.88 741.996 172.062 741.967C184.964 741.934 197.865 741.944 210.767 741.978C221.874 742.006 232.981 742.009 244.087 741.994C250.708 741.984 257.329 741.983 263.95 742.003C270.175 742.021 276.399 742.008 282.624 741.973C284.9 741.965 287.176 741.967 289.452 741.981C301.857 742.048 312.304 741.558 323.21 735.078C324.426 734.399 325.641 733.719 326.893 733.019C337.863 725.123 345.311 713.429 347.58 700.037C350.228 674.102 337.011 649.43 327.589 625.859C326.415 622.907 325.241 619.955 324.068 617.003C321.762 611.199 319.454 605.395 317.143 599.592C313.421 590.237 309.743 580.865 306.075 571.488C300.624 557.569 295.125 543.669 289.612 529.775C288.914 528.014 288.215 526.254 287.496 524.44C283.974 515.562 280.45 506.686 276.923 497.811C270.221 480.931 263.566 464.039 257.214 447.024C254.525 439.869 251.608 432.903 248.342 425.99C245.698 419.346 245.339 413.041 245.333 405.942C245.328 404.12 245.324 402.297 245.319 400.419C245.323 397.472 245.323 397.472 245.328 394.466C245.327 392.398 245.325 390.329 245.324 388.261C245.321 383.916 245.325 379.571 245.332 375.225C245.34 369.75 245.335 364.275 245.326 358.8C245.294 335.391 245.505 312.048 247.053 288.681C245.545 287.172 245.545 287.172 244.007 285.634C238.478 285.634 232.949 285.634 227.253 285.634C227.16 288.034 227.068 290.433 226.973 292.906C226.051 316.89 225.129 340.874 224.206 364.858C206.189 377.025 188.136 389.106 169.659 400.566C167.644 401.82 167.644 401.82 165.588 403.099C156.251 408.845 156.251 408.845 151.096 410.564C150.593 369.337 150.091 328.11 149.573 285.634C143.541 285.634 137.509 285.634 131.295 285.634Z"/>
</mask>
<path d="M106.405 258.016C107.786 258.012 109.167 258.008 110.59 258.003C112.834 258.008 112.834 258.008 115.124 258.013C117.511 258.009 117.511 258.009 119.945 258.005C125.206 257.998 130.467 258.002 135.728 258.008C139.395 258.006 143.063 258.005 146.73 258.003C154.424 258.001 162.118 258.004 169.812 258.011C179.636 258.02 189.46 258.015 199.285 258.006C206.865 258 214.445 258.002 222.026 258.006C225.645 258.007 229.265 258.006 232.885 258.002C237.969 257.998 243.053 258.004 248.137 258.013C249.611 258.01 251.086 258.007 252.606 258.003C256.851 258.016 261.087 258.09 265.331 258.21C266.954 258.255 268.576 258.301 270.248 258.348C272.681 258.474 272.681 258.474 275.164 258.603C277.37 258.706 277.37 258.706 279.62 258.812C284.677 259.98 286.569 261.737 289.701 265.828C290.59 272.825 290.61 276.236 287.417 282.491C282.125 286.858 278.191 286.504 271.424 287.157C271.411 303.025 271.448 318.893 271.546 334.761C271.59 342.132 271.618 349.502 271.607 356.873C271.596 364.005 271.631 371.137 271.696 378.27C271.712 380.971 271.714 383.672 271.698 386.374C271.606 405.005 274.48 419.46 282.086 436.464C283.285 439.412 284.477 442.363 285.655 445.32C286.747 447.955 287.842 450.59 288.94 453.223C293.215 463.581 297.353 473.957 301.232 484.47C307.371 501.033 313.957 517.428 320.441 533.859C322.158 538.213 323.875 542.567 325.591 546.921C327.433 551.591 329.275 556.26 331.117 560.93C332.545 564.551 333.972 568.173 335.399 571.794C340.174 583.904 344.965 596.007 349.796 608.095C352.167 614.03 354.531 619.968 356.895 625.906C358.034 628.762 359.177 631.618 360.323 634.472C372.275 664.242 383.097 692.736 370.088 724.372C360.347 743.671 345.144 757.679 325.025 765.739C314.703 769.008 304.32 770.301 293.502 770.344C291.575 770.355 289.647 770.366 287.661 770.377C285.552 770.381 283.443 770.385 281.333 770.389C279.09 770.399 276.847 770.409 274.604 770.42C267.263 770.452 259.922 770.467 252.581 770.483C250.041 770.489 247.502 770.495 244.962 770.501C233.022 770.53 221.082 770.552 209.142 770.565C195.418 770.58 181.696 770.62 167.973 770.681C157.328 770.728 146.683 770.75 136.038 770.755C129.698 770.759 123.359 770.772 117.019 770.811C111.042 770.846 105.065 770.852 99.0878 770.837C96.9145 770.836 94.7411 770.845 92.5679 770.867C66.5039 771.106 40.996 765.604 21.3911 747.32C9.65279 734.36 1.60321 717.564 0.30521 700.037C0.226673 699.065 0.148136 698.092 0.0672196 697.091C-0.747857 678.577 5.99131 660.653 12.5855 643.666C13.3815 641.581 14.1765 639.497 14.9706 637.412C17.6709 630.345 20.4094 623.293 23.1523 616.242C23.6558 614.946 24.1593 613.65 24.6781 612.315C31.4658 594.847 38.2994 577.398 45.1525 559.957C49.3746 549.209 53.5816 538.455 57.7798 527.698C79.516 472.016 79.516 472.016 90.6247 444.525C91.2876 442.88 91.9505 441.236 92.6335 439.541C93.1928 438.16 93.7522 436.779 94.3284 435.356C94.9668 433.711 95.6051 432.065 96.2628 430.37C96.7777 429.287 97.2927 428.204 97.8232 427.088C103.851 413.2 103.13 399.487 102.95 384.646C102.939 381.869 102.93 379.092 102.924 376.315C102.901 369.059 102.841 361.803 102.774 354.547C102.711 347.122 102.684 339.697 102.653 332.271C102.588 317.741 102.484 303.211 102.355 288.681C100.673 288.247 98.9901 287.813 97.2564 287.365C90.7939 285.354 88.8629 283.889 85.6009 278.016C84.6922 271.654 84.9063 268.535 88.1712 262.971C93.5765 258.003 99.2872 258.02 106.405 258.016ZM131.295 285.634C131.303 287.261 131.311 288.889 131.319 290.566C131.387 306.049 131.389 321.531 131.331 337.014C131.302 344.971 131.296 352.926 131.342 360.883C131.386 368.589 131.368 376.293 131.312 383.999C131.301 386.91 131.31 389.823 131.342 392.734C131.555 413.841 127.576 430.508 119.071 449.826C116.928 454.729 114.991 459.702 113.041 464.685C111.639 468.166 110.235 471.645 108.829 475.124C102.548 490.725 96.3987 506.371 90.3607 522.068C83.8306 539.041 77.1479 555.946 70.3695 572.821C61.2108 595.629 52.2571 618.509 43.4506 641.455C41.5224 646.472 39.5826 651.485 37.6399 656.497C36.5229 659.393 35.4063 662.289 34.2902 665.186C33.7917 666.467 33.2933 667.748 32.7797 669.068C26.9777 684.206 26.1011 696.945 32.2911 712.225C39.4509 726.102 49.8003 734.325 64.2326 739.907C73.4592 742.437 82.9573 742.017 92.4494 741.961C94.8004 741.969 97.1514 741.98 99.5023 741.993C105.847 742.021 112.19 742.01 118.535 741.991C125.196 741.975 131.857 741.99 138.518 741.999C149.699 742.01 160.88 741.996 172.062 741.967C184.964 741.934 197.865 741.944 210.767 741.978C221.874 742.006 232.981 742.009 244.087 741.994C250.708 741.984 257.329 741.983 263.95 742.003C270.175 742.021 276.399 742.008 282.624 741.973C284.9 741.965 287.176 741.967 289.452 741.981C301.857 742.048 312.304 741.558 323.21 735.078C324.426 734.399 325.641 733.719 326.893 733.019C337.863 725.123 345.311 713.429 347.58 700.037C350.228 674.102 337.011 649.43 327.589 625.859C326.415 622.907 325.241 619.955 324.068 617.003C321.762 611.199 319.454 605.395 317.143 599.592C313.421 590.237 309.743 580.865 306.075 571.488C300.624 557.569 295.125 543.669 289.612 529.775C288.914 528.014 288.215 526.254 287.496 524.44C283.974 515.562 280.45 506.686 276.923 497.811C270.221 480.931 263.566 464.039 257.214 447.024C254.525 439.869 251.608 432.903 248.342 425.99C245.698 419.346 245.339 413.041 245.333 405.942C245.328 404.12 245.324 402.297 245.319 400.419C245.323 397.472 245.323 397.472 245.328 394.466C245.327 392.398 245.325 390.329 245.324 388.261C245.321 383.916 245.325 379.571 245.332 375.225C245.34 369.75 245.335 364.275 245.326 358.8C245.294 335.391 245.505 312.048 247.053 288.681C245.545 287.172 245.545 287.172 244.007 285.634C238.478 285.634 232.949 285.634 227.253 285.634C227.16 288.034 227.068 290.433 226.973 292.906C226.051 316.89 225.129 340.874 224.206 364.858C206.189 377.025 188.136 389.106 169.659 400.566C167.644 401.82 167.644 401.82 165.588 403.099C156.251 408.845 156.251 408.845 151.096 410.564C150.593 369.337 150.091 328.11 149.573 285.634C143.541 285.634 137.509 285.634 131.295 285.634Z" fill="white" stroke="black" stroke-width="6" mask="url(#path-1-inside-1_373_163)"/>
<path d="M180.584 491.001C189.921 500.032 223.267 534.945 215.375 565.251C206.299 600.102 208.667 605.34 216.888 606.164C216.888 606.164 224.451 609.194 228.989 597.072C233.51 584.995 233.527 574.422 233.527 574.343C250.167 597.072 255.882 616.081 257.73 645.562C257.73 689.505 221.426 718.296 185.122 718.296C162.432 721.326 111 702.601 111 645.562C114.025 594.041 166.97 566.766 180.584 491.001ZM185.066 603.071C165.128 634.392 150.604 654.122 149.127 673.852C149.127 693.465 165.736 709.364 185.312 709.364C204.889 709.364 220.759 693.465 220.759 673.852C219.528 654.862 205.744 635.872 185.066 603.071Z" fill="#FF2525"/>
<path d="M189.185 668.697C194.958 671.964 199.554 675.828 202.337 679.374C203.732 681.151 204.616 682.777 205.008 684.147C205.398 685.51 205.266 686.47 204.873 687.134C204.48 687.798 203.693 688.389 202.29 688.737C200.88 689.087 198.997 689.148 196.727 688.851C192.195 688.257 186.478 686.287 180.704 683.02C174.931 679.753 170.334 675.888 167.551 672.342C166.157 670.565 165.273 668.94 164.881 667.57C164.491 666.207 164.623 665.246 165.016 664.582C165.41 663.918 166.196 663.328 167.599 662.979C169.009 662.629 170.891 662.568 173.162 662.866C177.693 663.459 183.411 665.43 189.185 668.697Z" stroke="black" stroke-width="3.46608"/>
<path d="M193.437 675.819C193.47 682.331 192.382 688.15 190.662 692.279C189.801 694.348 188.814 695.911 187.805 696.932C186.801 697.946 185.874 698.336 185.057 698.34C184.24 698.343 183.309 697.963 182.296 696.958C181.276 695.947 180.274 694.393 179.392 692.334C177.63 688.221 176.482 682.412 176.449 675.9C176.417 669.388 177.506 663.569 179.226 659.44C180.087 657.371 181.073 655.807 182.083 654.786C183.086 653.772 184.013 653.383 184.83 653.379C185.647 653.375 186.579 653.755 187.592 654.76C188.612 655.771 189.614 657.325 190.496 659.385C192.258 663.498 193.405 669.307 193.437 675.819Z" stroke="black" stroke-width="3.46608"/>
<path d="M189.155 683.033C183.369 686.278 177.643 688.228 173.109 688.804C170.837 689.093 168.955 689.025 167.546 688.669C166.144 688.316 165.36 687.723 164.97 687.057C164.58 686.392 164.451 685.431 164.847 684.069C165.244 682.701 166.135 681.079 167.536 679.308C170.333 675.772 174.945 671.924 180.731 668.679C186.517 665.433 192.243 663.484 196.776 662.908C199.047 662.619 200.929 662.687 202.338 663.042C203.74 663.395 204.524 663.989 204.914 664.654C205.305 665.319 205.433 666.28 205.038 667.642C204.64 669.01 203.751 670.633 202.349 672.404C199.552 675.939 194.941 679.788 189.155 683.033Z" stroke="black" stroke-width="3.46608"/>
<circle cx="184.944" cy="675.859" r="4.04376" fill="white" stroke="black" stroke-width="1.15536"/>
<g clip-path="url(#clip0_373_163)">
<path d="M197.749 92.2473L212.188 10.1994C213.069 5.1939 217.775 1.8479 222.762 2.73946L222.765 2.73997C227.753 3.61796 231.039 8.35918 230.159 13.3619L215.72 95.4097C214.841 100.408 210.137 103.749 205.144 102.87C200.155 101.992 196.868 97.255 197.749 92.2473Z" fill="white" stroke="black" stroke-width="2"/>
<mask id="path-8-inside-2_373_163" fill="white">
<path d="M234.999 77.0002L250.499 79.5692L254.209 59.4616L258.499 36.9999L243.499 34.5002L227.093 31.5001L229.433 18.2024L396.228 47.5542C415.93 51.0217 429.125 69.935 425.659 89.6326C422.192 109.33 403.334 122.602 383.631 119.135L216.837 89.7832L219.526 74.5005L234.999 77.0002ZM334.516 62.5943C333.929 65.9305 336.158 69.1111 339.494 69.6983C342.831 70.2854 346.011 68.0566 346.598 64.7204C347.186 61.3841 344.957 58.2034 341.621 57.6163C338.284 57.0293 335.104 59.258 334.516 62.5943ZM291.488 76.227C290.58 81.3901 294.029 86.3122 299.192 87.2208C304.355 88.129 309.277 84.6802 310.186 79.5174C311.094 74.3544 307.646 69.4316 302.483 68.5227C297.32 67.6142 292.397 71.0639 291.488 76.227Z"/>
</mask>
<path d="M234.999 77.0002L250.499 79.5692L254.209 59.4616L258.499 36.9999L243.499 34.5002L227.093 31.5001L229.433 18.2024L396.228 47.5542C415.93 51.0217 429.125 69.935 425.659 89.6326C422.192 109.33 403.334 122.602 383.631 119.135L216.837 89.7832L219.526 74.5005L234.999 77.0002ZM334.516 62.5943C333.929 65.9305 336.158 69.1111 339.494 69.6983C342.831 70.2854 346.011 68.0566 346.598 64.7204C347.186 61.3841 344.957 58.2034 341.621 57.6163C338.284 57.0293 335.104 59.258 334.516 62.5943ZM291.488 76.227C290.58 81.3901 294.029 86.3122 299.192 87.2208C304.355 88.129 309.277 84.6802 310.186 79.5174C311.094 74.3544 307.646 69.4316 302.483 68.5227C297.32 67.6142 292.397 71.0639 291.488 76.227Z" fill="white"/>
<path d="M234.999 77.0002L235.326 75.0271L235.318 75.0258L234.999 77.0002ZM250.499 79.5692L250.172 81.5423L252.11 81.8634L252.466 79.9321L250.499 79.5692ZM254.209 59.4616L252.245 59.0864L252.243 59.0987L254.209 59.4616ZM258.499 36.9999L260.464 37.3751L260.848 35.3638L258.828 35.0272L258.499 36.9999ZM243.499 34.5002L243.14 36.4675L243.155 36.4704L243.171 36.473L243.499 34.5002ZM227.093 31.5001L225.124 31.1534L224.779 33.1101L226.734 33.4674L227.093 31.5001ZM229.433 18.2024L229.78 16.2327L227.81 15.8861L227.464 17.8558L229.433 18.2024ZM396.228 47.5542L396.575 45.5845L396.575 45.5845L396.228 47.5542ZM425.659 89.6326L427.629 89.9792L427.629 89.9792L425.659 89.6326ZM383.631 119.135L383.285 121.105L383.285 121.105L383.631 119.135ZM216.837 89.7832L214.867 89.4366L214.521 91.4063L216.49 91.7529L216.837 89.7832ZM219.526 74.5005L219.845 72.5261L217.898 72.2115L217.557 74.1538L219.526 74.5005ZM334.516 62.5943L332.547 62.2476V62.2476L334.516 62.5943ZM339.494 69.6983L339.148 71.668L339.148 71.668L339.494 69.6983ZM346.598 64.7204L348.568 65.067V65.067L346.598 64.7204ZM341.621 57.6163L341.967 55.6466L341.967 55.6466L341.621 57.6163ZM291.488 76.227L289.518 75.8803L289.518 75.8804L291.488 76.227ZM299.192 87.2208L298.846 89.1905L298.846 89.1905L299.192 87.2208ZM310.186 79.5174L312.156 79.8641L312.156 79.8639L310.186 79.5174ZM302.483 68.5227L302.829 66.553L302.829 66.553L302.483 68.5227ZM234.999 77.0002L234.672 78.9733L250.172 81.5423L250.499 79.5692L250.826 77.5961L235.326 75.0271L234.999 77.0002ZM250.499 79.5692L252.466 79.9321L256.176 59.8245L254.209 59.4616L252.243 59.0987L248.533 79.2063L250.499 79.5692ZM254.209 59.4616L256.174 59.8368L260.464 37.3751L258.499 36.9999L256.535 36.6248L252.245 59.0864L254.209 59.4616ZM258.499 36.9999L258.828 35.0272L243.828 32.5274L243.499 34.5002L243.171 36.473L258.17 38.9727L258.499 36.9999ZM243.499 34.5002L243.859 32.5328L227.453 29.5327L227.093 31.5001L226.734 33.4674L243.14 36.4675L243.499 34.5002ZM227.093 31.5001L229.063 31.8467L231.403 18.5491L229.433 18.2024L227.464 17.8558L225.124 31.1534L227.093 31.5001ZM229.433 18.2024L229.087 20.1722L395.881 49.5239L396.228 47.5542L396.575 45.5845L229.78 16.2327L229.433 18.2024ZM396.228 47.5542L395.881 49.5239C414.491 52.7992 426.965 70.6716 423.689 89.286L425.659 89.6326L427.629 89.9792C431.285 69.1983 417.369 49.2443 396.575 45.5845L396.228 47.5542ZM425.659 89.6326L423.689 89.2859C420.413 107.9 402.588 120.44 383.978 117.165L383.631 119.135L383.285 121.105C404.08 124.764 423.972 110.76 427.629 89.9792L425.659 89.6326ZM383.631 119.135L383.978 117.165L217.184 87.8135L216.837 89.7832L216.49 91.7529L383.285 121.105L383.631 119.135ZM216.837 89.7832L218.807 90.1298L221.496 74.8471L219.526 74.5005L217.557 74.1538L214.867 89.4366L216.837 89.7832ZM219.526 74.5005L219.207 76.4749L234.68 78.9746L234.999 77.0002L235.318 75.0258L219.845 72.5261L219.526 74.5005ZM334.516 62.5943L332.547 62.2476C331.768 66.6717 334.724 70.8894 339.148 71.668L339.494 69.6983L339.841 67.7285C337.593 67.3329 336.091 65.1892 336.486 62.9409L334.516 62.5943ZM339.494 69.6983L339.148 71.668C343.572 72.4465 347.79 69.4911 348.568 65.067L346.598 64.7204L344.629 64.3738C344.233 66.6222 342.089 68.1242 339.841 67.7285L339.494 69.6983ZM346.598 64.7204L348.568 65.067C349.347 60.6429 346.391 56.4252 341.967 55.6466L341.621 57.6163L341.274 59.5861C343.522 59.9817 345.024 62.1253 344.629 64.3738L346.598 64.7204ZM341.621 57.6163L341.967 55.6466C337.543 54.8681 333.325 57.8235 332.547 62.2476L334.516 62.5943L336.486 62.9409C336.882 60.6925 339.025 59.1904 341.274 59.5861L341.621 57.6163ZM291.488 76.227L289.518 75.8804C288.418 82.1315 292.595 88.0905 298.846 89.1905L299.192 87.2208L299.539 85.2511C295.464 84.5339 292.741 80.6486 293.458 76.5735L291.488 76.227ZM299.192 87.2208L298.846 89.1905C305.097 90.2902 311.055 86.1147 312.156 79.8641L310.186 79.5174L308.216 79.1707C307.499 83.2457 303.614 85.9679 299.539 85.251L299.192 87.2208ZM310.186 79.5174L312.156 79.8639C313.255 73.6134 309.08 67.6534 302.829 66.553L302.483 68.5227L302.136 70.4925C306.211 71.2098 308.933 75.0954 308.216 79.1708L310.186 79.5174ZM302.483 68.5227L302.829 66.553C296.578 65.453 290.618 69.6295 289.518 75.8803L291.488 76.227L293.458 76.5737C294.175 72.4983 298.061 69.7753 302.136 70.4925L302.483 68.5227Z" fill="black" mask="url(#path-8-inside-2_373_163)"/>
</g>
<mask id="path-10-inside-3_373_163" fill="white">
<path d="M185.812 129.031C187.031 127.812 188.969 127.813 190.188 129.031C191.656 130.469 225.5 164.312 225.5 184.375C225.5 205.062 208.687 221.875 188 221.875C167.313 221.875 150.5 205.062 150.5 184.375C150.5 164.313 184.344 130.469 185.812 129.031ZM166.125 184.375C164.399 184.375 163 185.773 163 187.5C163 197.839 171.411 206.25 181.75 206.25C183.476 206.25 184.875 204.852 184.875 203.125C184.875 201.398 183.476 200 181.75 200C174.857 200 169.25 194.394 169.25 187.5C169.25 185.773 167.851 184.375 166.125 184.375Z"/>
</mask>
<path d="M185.812 129.031C187.031 127.812 188.969 127.813 190.188 129.031C191.656 130.469 225.5 164.312 225.5 184.375C225.5 205.062 208.687 221.875 188 221.875C167.313 221.875 150.5 205.062 150.5 184.375C150.5 164.313 184.344 130.469 185.812 129.031ZM166.125 184.375C164.399 184.375 163 185.773 163 187.5C163 197.839 171.411 206.25 181.75 206.25C183.476 206.25 184.875 204.852 184.875 203.125C184.875 201.398 183.476 200 181.75 200C174.857 200 169.25 194.394 169.25 187.5C169.25 185.773 167.851 184.375 166.125 184.375Z" fill="#FF2525"/>
<path d="M185.812 129.031L187.211 130.461L187.219 130.453L187.227 130.445L185.812 129.031ZM190.188 129.031L188.773 130.445L188.781 130.453L188.789 130.461L190.188 129.031ZM225.5 184.375H227.5V184.375H225.5ZM150.5 184.375H148.5V184.375H150.5ZM185.812 129.031L187.227 130.445C187.664 130.008 188.336 130.008 188.773 130.445L190.188 129.031L191.602 127.617C189.602 125.617 186.398 125.617 184.398 127.617L185.812 129.031ZM190.188 129.031L188.789 130.461C189.487 131.144 198.246 139.894 206.814 150.944C211.099 156.47 215.301 162.526 218.423 168.404C221.569 174.328 223.5 179.854 223.5 184.375H225.5H227.5C227.5 178.865 225.2 172.637 221.955 166.528C218.686 160.372 214.335 154.116 209.975 148.493C201.254 137.247 192.357 128.356 191.586 127.602L190.188 129.031ZM225.5 184.375H223.5C223.5 203.958 207.583 219.875 188 219.875V221.875V223.875C209.792 223.875 227.5 206.167 227.5 184.375H225.5ZM188 221.875V219.875C168.417 219.875 152.5 203.958 152.5 184.375H150.5H148.5C148.5 206.167 166.208 223.875 188 223.875V221.875ZM150.5 184.375H152.5C152.5 179.854 154.431 174.328 157.577 168.404C160.699 162.526 164.901 156.47 169.186 150.944C177.754 139.894 186.513 131.144 187.211 130.461L185.812 129.031L184.414 127.602C183.643 128.356 174.746 137.247 166.025 148.493C161.665 154.116 157.314 160.372 154.045 166.528C150.8 172.637 148.5 178.865 148.5 184.375H150.5ZM166.125 184.375V182.375C163.295 182.375 161 184.668 161 187.5H163H165C165 186.878 165.503 186.375 166.125 186.375V184.375ZM163 187.5H161C161 198.944 170.306 208.25 181.75 208.25V206.25V204.25C172.515 204.25 165 196.735 165 187.5H163ZM181.75 206.25V208.25C184.58 208.25 186.875 205.957 186.875 203.125H184.875H182.875C182.875 203.747 182.372 204.25 181.75 204.25V206.25ZM184.875 203.125H186.875C186.875 200.293 184.58 198 181.75 198V200V202C182.372 202 182.875 202.503 182.875 203.125H184.875ZM181.75 200V198C175.962 198 171.25 193.289 171.25 187.5H169.25H167.25C167.25 195.499 173.753 202 181.75 202V200ZM169.25 187.5H171.25C171.25 184.668 168.955 182.375 166.125 182.375V184.375V186.375C166.747 186.375 167.25 186.878 167.25 187.5H169.25Z" fill="black" mask="url(#path-10-inside-3_373_163)"/>
<defs>
<clipPath id="clip0_373_163">
<rect width="103.669" height="225.198" fill="white" transform="translate(195 102.101) rotate(-80.0195)"/>
</clipPath>
</defs>
</svg>
