<svg width="193" height="237" viewBox="0 0 193 237" fill="none" xmlns="http://www.w3.org/2000/svg">
<circle cx="96.5" cy="140.23" r="93.1074" stroke="white" stroke-width="6.78514"/>
<path d="M168.619 147.762C168.619 187.072 136.752 218.94 97.4414 218.94C58.2224 218.94 24.8516 187.162 24.8516 147.762V147.635L24.8613 147.509C26.3286 127.945 34.2598 108.6 46.4062 86.8545C58.533 65.1446 75.1226 40.6089 94.1104 10.8379L96.9854 6.33105L99.8389 10.8506C119.537 42.04 136.123 66.9233 148.015 88.458C159.925 110.028 167.387 128.675 168.612 147.542L168.619 147.652V147.762Z" fill="url(#paint0_linear_368_339)" stroke="white" stroke-width="6.78514"/>
<path d="M29.6572 162.828C83.7914 144.469 104.033 189.66 163.816 168.477" stroke="white" stroke-width="6.78514"/>
<path d="M86.4502 202.169C79.1733 201.67 72.1373 199.356 65.9841 195.44C59.8309 191.523 54.7565 186.128 51.2238 179.746" stroke="white" stroke-width="6.78514" stroke-linecap="round"/>
<path d="M128.645 108.154C128.645 97.5598 120.085 88.9718 109.526 88.9718C98.9671 88.9718 90.4072 97.5598 90.4072 108.154C90.4072 118.747 98.9671 127.335 109.526 127.335C120.085 127.335 128.645 118.747 128.645 108.154ZM135.263 108.154C135.263 122.414 123.74 133.975 109.526 133.975C95.312 133.975 83.7891 122.414 83.7891 108.154C83.7891 93.8927 95.312 82.332 109.526 82.332C123.74 82.332 135.263 93.8927 135.263 108.154Z" fill="white"/>
<path d="M144.747 137.971C146.405 139.763 146.301 142.564 144.516 144.227C142.73 145.891 139.938 145.787 138.28 143.996L128.721 133.667C127.063 131.876 127.166 129.075 128.952 127.411C130.738 125.748 133.529 125.852 135.187 127.643L144.747 137.971Z" fill="white"/>
<path d="M137.517 133.324C138.484 134.369 138.424 136.003 137.382 136.974C136.34 137.944 134.712 137.883 133.745 136.838L124.186 126.51C123.218 125.465 123.279 123.831 124.32 122.861C125.362 121.891 126.99 121.951 127.958 122.996L137.517 133.324Z" fill="white"/>
<path d="M110.139 92.2732C110.779 92.2343 111.307 92.2403 111.684 92.2573C111.873 92.2659 112.024 92.277 112.134 92.2869C112.189 92.2918 112.234 92.2969 112.267 92.3006C112.284 92.3024 112.298 92.3043 112.31 92.3056C112.315 92.3063 112.32 92.3065 112.325 92.3071C112.327 92.3073 112.329 92.3076 112.33 92.3078C112.331 92.3079 112.333 92.3084 112.333 92.3085C112.334 92.314 112.322 92.4105 112.1 94.1378L112.335 92.3085C113.342 92.439 114.053 93.3639 113.923 94.3741C113.793 95.3811 112.877 96.0927 111.874 95.9677L111.869 95.967H111.864C111.854 95.9659 111.835 95.9637 111.808 95.9613C111.748 95.956 111.651 95.9485 111.519 95.9425C111.255 95.9306 110.858 95.9254 110.361 95.9555C109.364 96.016 107.99 96.2185 106.5 96.784C103.591 97.8882 100.057 100.436 98.0342 106.524C97.7131 107.49 96.6714 108.013 95.7082 107.69C94.7453 107.368 94.2248 106.324 94.5456 105.358C96.9348 98.1664 101.306 94.8119 105.199 93.3344C107.11 92.6093 108.861 92.3508 110.139 92.2732ZM111.874 95.9677C111.874 95.9677 111.872 95.9679 111.871 95.9677L111.869 95.967C111.87 95.9672 111.872 95.9676 111.874 95.9677Z" fill="white"/>
<circle cx="0.470732" cy="0.470732" r="0.470732" transform="matrix(-1 0 0 1 99.7939 156.709)" fill="white"/>
<circle cx="86.1436" cy="153.412" r="1.41219" fill="white"/>
<circle cx="40.0117" cy="82.8028" r="0.470732" fill="white"/>
<circle cx="47.5441" cy="82.8048" r="2.35366" fill="white"/>
<circle cx="43.3087" cy="90.8028" r="1.88293" fill="white"/>
<circle cx="0.470732" cy="0.470732" r="0.470732" transform="matrix(1 0 0 -1 31.0664 112.459)" fill="white"/>
<circle cx="36.2472" cy="88.4513" r="1.41219" fill="white"/>
<circle cx="37.6563" cy="97.3946" r="0.941463" fill="white"/>
<circle cx="31.5392" cy="100.69" r="2.35366" fill="white"/>
<circle cx="33.8926" cy="106.809" r="0.941463" fill="white"/>
<circle cx="30.127" cy="178.361" r="0.941463" fill="white"/>
<circle cx="57.9004" cy="206.135" r="0.470732" fill="white"/>
<circle cx="63.5499" cy="214.604" r="2.35366" fill="white"/>
<circle cx="41.8947" cy="201.428" r="2.35366" fill="white"/>
<circle cx="132.277" cy="211.783" r="2.35366" fill="white"/>
<circle cx="60.2541" cy="143.528" r="2.82439" fill="white"/>
<circle cx="104.973" cy="151.527" r="1.41219" fill="white"/>
<circle cx="0.941463" cy="0.941463" r="0.941463" transform="matrix(-1 0 0 1 88.4971 147.291)" fill="white"/>
<circle cx="94.1466" cy="156.705" r="1.88293" fill="white"/>
<circle cx="157.225" cy="198.131" r="1.88293" fill="white"/>
<circle cx="149.692" cy="205.666" r="0.941463" fill="white"/>
<circle cx="139.808" cy="209.9" r="0.470732" fill="white"/>
<circle cx="143.574" cy="204.252" r="2.35366" fill="white"/>
<circle cx="152.047" cy="194.836" r="0.470732" fill="white"/>
<circle cx="158.167" cy="184.008" r="1.88293" fill="white"/>
<circle cx="0.941463" cy="0.941463" r="0.941463" transform="matrix(-1 0 0 1 169.464 156.709)" fill="white"/>
<circle cx="165.696" cy="119.992" r="1.88293" fill="white"/>
<circle cx="173.699" cy="148.707" r="2.35366" fill="white"/>
<circle cx="169.462" cy="139.758" r="1.88293" fill="white"/>
<circle cx="169.463" cy="132.229" r="0.941463" fill="white"/>
<circle cx="0.941463" cy="0.941463" r="0.941463" transform="matrix(-1 0 0 1 169.464 122.814)" fill="white"/>
<circle cx="164.756" cy="107.75" r="1.88293" fill="white"/>
<circle cx="149.692" cy="199.07" r="0.941463" fill="white"/>
<circle cx="105.914" cy="160.947" r="2.35366" fill="white"/>
<circle cx="156.754" cy="190.133" r="1.41219" fill="white"/>
<circle cx="165.696" cy="184.008" r="1.88293" fill="white"/>
<circle cx="168.991" cy="167.533" r="1.41219" fill="white"/>
<circle cx="164.285" cy="176.006" r="2.35366" fill="white"/>
<circle cx="40.9542" cy="192.01" r="2.35366" fill="white"/>
<circle cx="56.9581" cy="211.781" r="1.41219" fill="white"/>
<circle cx="0.941463" cy="0.941463" r="0.941463" transform="matrix(1 0 0 -1 50.8389 206.604)" fill="white"/>
<circle cx="37.1856" cy="186.363" r="1.41219" fill="white"/>
<circle cx="31.0685" cy="187.774" r="1.88293" fill="white"/>
<circle cx="62.1378" cy="209.426" r="0.941463" fill="white"/>
<circle cx="66.8438" cy="149.174" r="0.941463" fill="white"/>
<circle cx="64.4912" cy="152.938" r="0.470732" fill="white"/>
<circle cx="77.672" cy="143.996" r="1.41219" fill="white"/>
<circle cx="52.2521" cy="148.707" r="2.35366" fill="white"/>
<circle cx="58.371" cy="152" r="0.941463" transform="rotate(180 58.371 152)" fill="white"/>
<circle cx="81.4346" cy="151.533" r="0.470732" fill="white"/>
<circle cx="73.4338" cy="151.057" r="2.82439" fill="white"/>
<defs>
<linearGradient id="paint0_linear_368_339" x1="96.7356" y1="12.6621" x2="96.7356" y2="215.547" gradientUnits="userSpaceOnUse">
<stop stop-color="white"/>
<stop offset="1" stop-color="#A19E9E"/>
</linearGradient>
</defs>
</svg>
