<svg width="435" height="771" viewBox="0 0 435 771" fill="none" xmlns="http://www.w3.org/2000/svg">
<mask id="path-1-inside-1_373_164" fill="white">
<path d="M106.405 258.015C107.786 258.011 109.167 258.007 110.59 258.002C112.834 258.007 112.834 258.007 115.124 258.012C117.511 258.008 117.511 258.008 119.945 258.004C125.206 257.997 130.467 258.001 135.728 258.007C139.395 258.006 143.063 258.004 146.73 258.002C154.424 258 162.118 258.003 169.812 258.01C179.636 258.019 189.46 258.014 199.285 258.005C206.865 257.999 214.445 258.001 222.026 258.005C225.645 258.006 229.265 258.005 232.885 258.001C237.969 257.997 243.053 258.003 248.137 258.012C249.611 258.009 251.086 258.006 252.606 258.002C256.851 258.015 261.087 258.089 265.331 258.209C266.954 258.254 268.576 258.3 270.248 258.347C272.681 258.473 272.681 258.473 275.164 258.602C277.37 258.705 277.37 258.705 279.62 258.811C284.677 259.979 286.569 261.736 289.701 265.827C290.59 272.824 290.61 276.235 287.417 282.49C282.125 286.857 278.191 286.503 271.424 287.156C271.411 303.024 271.448 318.892 271.546 334.76C271.59 342.131 271.618 349.501 271.607 356.872C271.596 364.004 271.631 371.136 271.696 378.269C271.712 380.97 271.714 383.671 271.698 386.373C271.606 405.004 274.48 419.459 282.086 436.463C283.285 439.411 284.477 442.362 285.655 445.319C286.747 447.954 287.842 450.589 288.94 453.222C293.215 463.58 297.353 473.956 301.232 484.469C307.371 501.032 313.957 517.427 320.441 533.858C322.158 538.212 323.875 542.566 325.591 546.92C327.433 551.59 329.275 556.259 331.117 560.929C332.545 564.55 333.972 568.172 335.399 571.793C340.174 583.903 344.965 596.006 349.796 608.094C352.167 614.029 354.531 619.967 356.895 625.905C358.034 628.761 359.177 631.617 360.323 634.471C372.275 664.241 383.097 692.735 370.088 724.371C360.347 743.67 345.144 757.678 325.025 765.738C314.703 769.007 304.32 770.301 293.502 770.343C291.575 770.354 289.647 770.365 287.661 770.376C285.552 770.38 283.443 770.384 281.333 770.388C279.09 770.398 276.847 770.408 274.604 770.419C267.263 770.451 259.922 770.466 252.581 770.482C250.041 770.488 247.502 770.494 244.962 770.5C233.022 770.529 221.082 770.551 209.142 770.564C195.418 770.579 181.696 770.619 167.973 770.68C157.328 770.727 146.683 770.749 136.038 770.754C129.698 770.758 123.359 770.771 117.019 770.81C111.042 770.845 105.065 770.851 99.0878 770.836C96.9145 770.835 94.7411 770.844 92.5679 770.866C66.5039 771.105 40.996 765.603 21.3911 747.319C9.65279 734.359 1.60321 717.563 0.30521 700.036C0.226673 699.064 0.148136 698.091 0.0672196 697.09C-0.747857 678.576 5.99131 660.652 12.5855 643.665C13.3815 641.58 14.1765 639.496 14.9706 637.411C17.6709 630.344 20.4094 623.292 23.1523 616.241C23.6558 614.945 24.1593 613.649 24.6781 612.314C31.4658 594.846 38.2994 577.397 45.1525 559.956C49.3746 549.208 53.5816 538.454 57.7798 527.697C79.516 472.015 79.516 472.015 90.6247 444.524C91.2876 442.879 91.9505 441.235 92.6335 439.54C93.1928 438.159 93.7522 436.778 94.3284 435.355C94.9668 433.71 95.6051 432.064 96.2628 430.369C96.7777 429.286 97.2927 428.203 97.8232 427.087C103.851 413.199 103.13 399.486 102.95 384.645C102.939 381.868 102.93 379.091 102.924 376.314C102.901 369.058 102.841 361.802 102.774 354.546C102.711 347.121 102.684 339.696 102.653 332.27C102.588 317.74 102.484 303.21 102.355 288.68C100.673 288.246 98.9901 287.812 97.2564 287.364C90.7939 285.353 88.8629 283.888 85.6009 278.015C84.6922 271.653 84.9063 268.534 88.1712 262.97C93.5765 258.002 99.2872 258.019 106.405 258.015ZM131.295 285.633C131.303 287.26 131.311 288.888 131.319 290.565C131.387 306.048 131.389 321.53 131.331 337.013C131.302 344.97 131.296 352.925 131.342 360.882C131.386 368.588 131.368 376.292 131.312 383.998C131.301 386.909 131.31 389.822 131.342 392.733C131.555 413.84 127.576 430.507 119.071 449.825C116.928 454.729 114.991 459.701 113.041 464.684C111.639 468.165 110.235 471.644 108.829 475.123C102.548 490.724 96.3987 506.371 90.3607 522.067C83.8306 539.04 77.1479 555.945 70.3695 572.82C61.2108 595.628 52.2571 618.508 43.4506 641.454C41.5224 646.471 39.5826 651.484 37.6399 656.496C36.5229 659.392 35.4063 662.288 34.2902 665.185C33.7917 666.466 33.2933 667.747 32.7797 669.067C26.9777 684.205 26.1011 696.944 32.2911 712.224C39.4509 726.101 49.8003 734.324 64.2326 739.906C73.4592 742.436 82.9573 742.016 92.4494 741.96C94.8004 741.968 97.1514 741.979 99.5023 741.992C105.847 742.02 112.19 742.009 118.535 741.99C125.196 741.974 131.857 741.989 138.518 741.998C149.699 742.009 160.88 741.995 172.062 741.966C184.964 741.933 197.865 741.943 210.767 741.977C221.874 742.005 232.981 742.009 244.087 741.993C250.708 741.983 257.329 741.982 263.95 742.002C270.175 742.02 276.399 742.007 282.624 741.972C284.9 741.964 287.176 741.966 289.452 741.98C301.857 742.047 312.304 741.557 323.21 735.077C324.426 734.398 325.641 733.718 326.893 733.018C337.863 725.122 345.311 713.428 347.58 700.036C350.228 674.101 337.011 649.429 327.589 625.858C326.415 622.907 325.241 619.954 324.068 617.002C321.762 611.198 319.454 605.394 317.143 599.591C313.421 590.236 309.743 580.864 306.075 571.487C300.624 557.568 295.125 543.668 289.612 529.774C288.914 528.013 288.215 526.253 287.496 524.439C283.974 515.561 280.45 506.685 276.923 497.81C270.221 480.93 263.566 464.039 257.214 447.023C254.525 439.868 251.608 432.902 248.342 425.989C245.698 419.345 245.339 413.04 245.333 405.941C245.328 404.119 245.324 402.296 245.319 400.418C245.323 397.471 245.323 397.471 245.328 394.465C245.327 392.397 245.325 390.328 245.324 388.26C245.321 383.915 245.325 379.57 245.332 375.224C245.34 369.749 245.335 364.274 245.326 358.799C245.294 335.39 245.505 312.047 247.053 288.68C245.545 287.171 245.545 287.171 244.007 285.633C238.478 285.633 232.949 285.633 227.253 285.633C227.16 288.033 227.068 290.432 226.973 292.905C226.051 316.889 225.129 340.873 224.206 364.857C206.189 377.024 188.136 389.105 169.659 400.565C167.644 401.819 167.644 401.819 165.588 403.098C156.251 408.844 156.251 408.844 151.096 410.563C150.593 369.336 150.091 328.109 149.573 285.633C143.541 285.633 137.509 285.633 131.295 285.633Z"/>
</mask>
<path d="M106.405 258.015C107.786 258.011 109.167 258.007 110.59 258.002C112.834 258.007 112.834 258.007 115.124 258.012C117.511 258.008 117.511 258.008 119.945 258.004C125.206 257.997 130.467 258.001 135.728 258.007C139.395 258.006 143.063 258.004 146.73 258.002C154.424 258 162.118 258.003 169.812 258.01C179.636 258.019 189.46 258.014 199.285 258.005C206.865 257.999 214.445 258.001 222.026 258.005C225.645 258.006 229.265 258.005 232.885 258.001C237.969 257.997 243.053 258.003 248.137 258.012C249.611 258.009 251.086 258.006 252.606 258.002C256.851 258.015 261.087 258.089 265.331 258.209C266.954 258.254 268.576 258.3 270.248 258.347C272.681 258.473 272.681 258.473 275.164 258.602C277.37 258.705 277.37 258.705 279.62 258.811C284.677 259.979 286.569 261.736 289.701 265.827C290.59 272.824 290.61 276.235 287.417 282.49C282.125 286.857 278.191 286.503 271.424 287.156C271.411 303.024 271.448 318.892 271.546 334.76C271.59 342.131 271.618 349.501 271.607 356.872C271.596 364.004 271.631 371.136 271.696 378.269C271.712 380.97 271.714 383.671 271.698 386.373C271.606 405.004 274.48 419.459 282.086 436.463C283.285 439.411 284.477 442.362 285.655 445.319C286.747 447.954 287.842 450.589 288.94 453.222C293.215 463.58 297.353 473.956 301.232 484.469C307.371 501.032 313.957 517.427 320.441 533.858C322.158 538.212 323.875 542.566 325.591 546.92C327.433 551.59 329.275 556.259 331.117 560.929C332.545 564.55 333.972 568.172 335.399 571.793C340.174 583.903 344.965 596.006 349.796 608.094C352.167 614.029 354.531 619.967 356.895 625.905C358.034 628.761 359.177 631.617 360.323 634.471C372.275 664.241 383.097 692.735 370.088 724.371C360.347 743.67 345.144 757.678 325.025 765.738C314.703 769.007 304.32 770.301 293.502 770.343C291.575 770.354 289.647 770.365 287.661 770.376C285.552 770.38 283.443 770.384 281.333 770.388C279.09 770.398 276.847 770.408 274.604 770.419C267.263 770.451 259.922 770.466 252.581 770.482C250.041 770.488 247.502 770.494 244.962 770.5C233.022 770.529 221.082 770.551 209.142 770.564C195.418 770.579 181.696 770.619 167.973 770.68C157.328 770.727 146.683 770.749 136.038 770.754C129.698 770.758 123.359 770.771 117.019 770.81C111.042 770.845 105.065 770.851 99.0878 770.836C96.9145 770.835 94.7411 770.844 92.5679 770.866C66.5039 771.105 40.996 765.603 21.3911 747.319C9.65279 734.359 1.60321 717.563 0.30521 700.036C0.226673 699.064 0.148136 698.091 0.0672196 697.09C-0.747857 678.576 5.99131 660.652 12.5855 643.665C13.3815 641.58 14.1765 639.496 14.9706 637.411C17.6709 630.344 20.4094 623.292 23.1523 616.241C23.6558 614.945 24.1593 613.649 24.6781 612.314C31.4658 594.846 38.2994 577.397 45.1525 559.956C49.3746 549.208 53.5816 538.454 57.7798 527.697C79.516 472.015 79.516 472.015 90.6247 444.524C91.2876 442.879 91.9505 441.235 92.6335 439.54C93.1928 438.159 93.7522 436.778 94.3284 435.355C94.9668 433.71 95.6051 432.064 96.2628 430.369C96.7777 429.286 97.2927 428.203 97.8232 427.087C103.851 413.199 103.13 399.486 102.95 384.645C102.939 381.868 102.93 379.091 102.924 376.314C102.901 369.058 102.841 361.802 102.774 354.546C102.711 347.121 102.684 339.696 102.653 332.27C102.588 317.74 102.484 303.21 102.355 288.68C100.673 288.246 98.9901 287.812 97.2564 287.364C90.7939 285.353 88.8629 283.888 85.6009 278.015C84.6922 271.653 84.9063 268.534 88.1712 262.97C93.5765 258.002 99.2872 258.019 106.405 258.015ZM131.295 285.633C131.303 287.26 131.311 288.888 131.319 290.565C131.387 306.048 131.389 321.53 131.331 337.013C131.302 344.97 131.296 352.925 131.342 360.882C131.386 368.588 131.368 376.292 131.312 383.998C131.301 386.909 131.31 389.822 131.342 392.733C131.555 413.84 127.576 430.507 119.071 449.825C116.928 454.729 114.991 459.701 113.041 464.684C111.639 468.165 110.235 471.644 108.829 475.123C102.548 490.724 96.3987 506.371 90.3607 522.067C83.8306 539.04 77.1479 555.945 70.3695 572.82C61.2108 595.628 52.2571 618.508 43.4506 641.454C41.5224 646.471 39.5826 651.484 37.6399 656.496C36.5229 659.392 35.4063 662.288 34.2902 665.185C33.7917 666.466 33.2933 667.747 32.7797 669.067C26.9777 684.205 26.1011 696.944 32.2911 712.224C39.4509 726.101 49.8003 734.324 64.2326 739.906C73.4592 742.436 82.9573 742.016 92.4494 741.96C94.8004 741.968 97.1514 741.979 99.5023 741.992C105.847 742.02 112.19 742.009 118.535 741.99C125.196 741.974 131.857 741.989 138.518 741.998C149.699 742.009 160.88 741.995 172.062 741.966C184.964 741.933 197.865 741.943 210.767 741.977C221.874 742.005 232.981 742.009 244.087 741.993C250.708 741.983 257.329 741.982 263.95 742.002C270.175 742.02 276.399 742.007 282.624 741.972C284.9 741.964 287.176 741.966 289.452 741.98C301.857 742.047 312.304 741.557 323.21 735.077C324.426 734.398 325.641 733.718 326.893 733.018C337.863 725.122 345.311 713.428 347.58 700.036C350.228 674.101 337.011 649.429 327.589 625.858C326.415 622.907 325.241 619.954 324.068 617.002C321.762 611.198 319.454 605.394 317.143 599.591C313.421 590.236 309.743 580.864 306.075 571.487C300.624 557.568 295.125 543.668 289.612 529.774C288.914 528.013 288.215 526.253 287.496 524.439C283.974 515.561 280.45 506.685 276.923 497.81C270.221 480.93 263.566 464.039 257.214 447.023C254.525 439.868 251.608 432.902 248.342 425.989C245.698 419.345 245.339 413.04 245.333 405.941C245.328 404.119 245.324 402.296 245.319 400.418C245.323 397.471 245.323 397.471 245.328 394.465C245.327 392.397 245.325 390.328 245.324 388.26C245.321 383.915 245.325 379.57 245.332 375.224C245.34 369.749 245.335 364.274 245.326 358.799C245.294 335.39 245.505 312.047 247.053 288.68C245.545 287.171 245.545 287.171 244.007 285.633C238.478 285.633 232.949 285.633 227.253 285.633C227.16 288.033 227.068 290.432 226.973 292.905C226.051 316.889 225.129 340.873 224.206 364.857C206.189 377.024 188.136 389.105 169.659 400.565C167.644 401.819 167.644 401.819 165.588 403.098C156.251 408.844 156.251 408.844 151.096 410.563C150.593 369.336 150.091 328.109 149.573 285.633C143.541 285.633 137.509 285.633 131.295 285.633Z" fill="white" stroke="black" stroke-width="6" mask="url(#path-1-inside-1_373_164)"/>
<path d="M180.584 491C189.921 500.031 223.267 534.944 215.375 565.25C206.299 600.101 208.667 605.339 216.888 606.163C216.888 606.163 224.451 609.193 228.989 597.071C233.51 584.994 233.527 574.421 233.527 574.342C250.167 597.071 255.882 616.08 257.73 645.561C257.73 689.504 221.426 718.295 185.122 718.295C162.432 721.326 111 702.6 111 645.561C114.025 594.04 166.97 566.765 180.584 491ZM185.066 603.07C165.128 634.391 150.604 654.121 149.127 673.851C149.127 693.464 165.736 709.363 185.312 709.363C204.889 709.363 220.759 693.464 220.759 673.851C219.528 654.861 205.744 635.871 185.066 603.07Z" fill="white"/>
<path d="M189.185 668.696C194.958 671.963 199.554 675.827 202.337 679.373C203.732 681.15 204.616 682.776 205.008 684.146C205.398 685.509 205.266 686.469 204.873 687.133C204.48 687.797 203.693 688.388 202.29 688.736C200.88 689.087 198.997 689.147 196.727 688.85C192.195 688.256 186.478 686.286 180.704 683.019C174.931 679.752 170.334 675.887 167.551 672.341C166.157 670.564 165.273 668.939 164.881 667.569C164.491 666.206 164.623 665.245 165.016 664.581C165.41 663.917 166.196 663.327 167.599 662.978C169.009 662.628 170.891 662.567 173.162 662.865C177.693 663.458 183.411 665.429 189.185 668.696Z" stroke="black" stroke-width="3.46608"/>
<path d="M193.437 675.818C193.47 682.33 192.382 688.149 190.662 692.278C189.801 694.347 188.814 695.91 187.805 696.931C186.801 697.945 185.874 698.335 185.057 698.339C184.24 698.343 183.309 697.962 182.296 696.957C181.276 695.946 180.274 694.392 179.392 692.333C177.63 688.22 176.482 682.411 176.449 675.899C176.417 669.387 177.506 663.568 179.226 659.439C180.087 657.37 181.073 655.807 182.083 654.785C183.086 653.771 184.013 653.382 184.83 653.378C185.647 653.374 186.579 653.754 187.592 654.759C188.612 655.77 189.614 657.324 190.496 659.384C192.258 663.497 193.405 669.306 193.437 675.818Z" stroke="black" stroke-width="3.46608"/>
<path d="M189.155 683.032C183.369 686.277 177.643 688.227 173.109 688.803C170.837 689.092 168.955 689.024 167.546 688.669C166.144 688.315 165.36 687.722 164.97 687.056C164.58 686.391 164.451 685.43 164.847 684.068C165.244 682.7 166.135 681.078 167.536 679.307C170.333 675.771 174.945 671.923 180.731 668.678C186.517 665.433 192.243 663.483 196.776 662.907C199.047 662.618 200.929 662.686 202.338 663.041C203.74 663.394 204.524 663.988 204.914 664.653C205.305 665.318 205.433 666.279 205.038 667.641C204.64 669.009 203.751 670.632 202.349 672.403C199.552 675.938 194.941 679.787 189.155 683.032Z" stroke="black" stroke-width="3.46608"/>
<circle cx="184.944" cy="675.858" r="4.04376" fill="white" stroke="black" stroke-width="1.15536"/>
<g clip-path="url(#clip0_373_164)">
<path d="M197.749 92.2473L212.188 10.1994C213.069 5.1939 217.775 1.8479 222.762 2.73946L222.765 2.73997C227.753 3.61796 231.039 8.35918 230.159 13.3619L215.72 95.4097C214.841 100.408 210.137 103.749 205.144 102.87C200.155 101.992 196.868 97.255 197.749 92.2473Z" fill="white" stroke="black" stroke-width="2"/>
<mask id="path-8-inside-2_373_164" fill="white">
<path d="M234.999 77.0002L250.499 79.5692L254.209 59.4616L258.499 36.9999L243.499 34.5002L227.093 31.5001L229.433 18.2024L396.228 47.5542C415.93 51.0217 429.125 69.935 425.659 89.6326C422.192 109.33 403.334 122.602 383.631 119.135L216.837 89.7832L219.526 74.5005L234.999 77.0002ZM334.516 62.5943C333.929 65.9305 336.158 69.1111 339.494 69.6983C342.831 70.2854 346.011 68.0566 346.598 64.7204C347.186 61.3841 344.957 58.2034 341.621 57.6163C338.284 57.0293 335.104 59.258 334.516 62.5943ZM291.488 76.227C290.58 81.3901 294.029 86.3122 299.192 87.2208C304.355 88.129 309.277 84.6802 310.186 79.5174C311.094 74.3544 307.646 69.4316 302.483 68.5227C297.32 67.6142 292.397 71.0639 291.488 76.227Z"/>
</mask>
<path d="M234.999 77.0002L250.499 79.5692L254.209 59.4616L258.499 36.9999L243.499 34.5002L227.093 31.5001L229.433 18.2024L396.228 47.5542C415.93 51.0217 429.125 69.935 425.659 89.6326C422.192 109.33 403.334 122.602 383.631 119.135L216.837 89.7832L219.526 74.5005L234.999 77.0002ZM334.516 62.5943C333.929 65.9305 336.158 69.1111 339.494 69.6983C342.831 70.2854 346.011 68.0566 346.598 64.7204C347.186 61.3841 344.957 58.2034 341.621 57.6163C338.284 57.0293 335.104 59.258 334.516 62.5943ZM291.488 76.227C290.58 81.3901 294.029 86.3122 299.192 87.2208C304.355 88.129 309.277 84.6802 310.186 79.5174C311.094 74.3544 307.646 69.4316 302.483 68.5227C297.32 67.6142 292.397 71.0639 291.488 76.227Z" fill="white"/>
<path d="M234.999 77.0002L235.326 75.0271L235.318 75.0258L234.999 77.0002ZM250.499 79.5692L250.172 81.5423L252.11 81.8634L252.466 79.9321L250.499 79.5692ZM254.209 59.4616L252.245 59.0864L252.243 59.0987L254.209 59.4616ZM258.499 36.9999L260.464 37.3751L260.848 35.3638L258.828 35.0272L258.499 36.9999ZM243.499 34.5002L243.14 36.4675L243.155 36.4704L243.171 36.473L243.499 34.5002ZM227.093 31.5001L225.124 31.1534L224.779 33.1101L226.734 33.4674L227.093 31.5001ZM229.433 18.2024L229.78 16.2327L227.81 15.8861L227.464 17.8558L229.433 18.2024ZM396.228 47.5542L396.575 45.5845L396.575 45.5845L396.228 47.5542ZM425.659 89.6326L427.629 89.9792L427.629 89.9792L425.659 89.6326ZM383.631 119.135L383.285 121.105L383.285 121.105L383.631 119.135ZM216.837 89.7832L214.867 89.4366L214.521 91.4063L216.49 91.7529L216.837 89.7832ZM219.526 74.5005L219.845 72.5261L217.898 72.2115L217.557 74.1538L219.526 74.5005ZM334.516 62.5943L332.547 62.2476V62.2476L334.516 62.5943ZM339.494 69.6983L339.148 71.668L339.148 71.668L339.494 69.6983ZM346.598 64.7204L348.568 65.067V65.067L346.598 64.7204ZM341.621 57.6163L341.967 55.6466L341.967 55.6466L341.621 57.6163ZM291.488 76.227L289.518 75.8803L289.518 75.8804L291.488 76.227ZM299.192 87.2208L298.846 89.1905L298.846 89.1905L299.192 87.2208ZM310.186 79.5174L312.156 79.8641L312.156 79.8639L310.186 79.5174ZM302.483 68.5227L302.829 66.553L302.829 66.553L302.483 68.5227ZM234.999 77.0002L234.672 78.9733L250.172 81.5423L250.499 79.5692L250.826 77.5961L235.326 75.0271L234.999 77.0002ZM250.499 79.5692L252.466 79.9321L256.176 59.8245L254.209 59.4616L252.243 59.0987L248.533 79.2063L250.499 79.5692ZM254.209 59.4616L256.174 59.8368L260.464 37.3751L258.499 36.9999L256.535 36.6248L252.245 59.0864L254.209 59.4616ZM258.499 36.9999L258.828 35.0272L243.828 32.5274L243.499 34.5002L243.171 36.473L258.17 38.9727L258.499 36.9999ZM243.499 34.5002L243.859 32.5328L227.453 29.5327L227.093 31.5001L226.734 33.4674L243.14 36.4675L243.499 34.5002ZM227.093 31.5001L229.063 31.8467L231.403 18.5491L229.433 18.2024L227.464 17.8558L225.124 31.1534L227.093 31.5001ZM229.433 18.2024L229.087 20.1722L395.881 49.5239L396.228 47.5542L396.575 45.5845L229.78 16.2327L229.433 18.2024ZM396.228 47.5542L395.881 49.5239C414.491 52.7992 426.965 70.6716 423.689 89.286L425.659 89.6326L427.629 89.9792C431.285 69.1983 417.369 49.2443 396.575 45.5845L396.228 47.5542ZM425.659 89.6326L423.689 89.2859C420.413 107.9 402.588 120.44 383.978 117.165L383.631 119.135L383.285 121.105C404.08 124.764 423.972 110.76 427.629 89.9792L425.659 89.6326ZM383.631 119.135L383.978 117.165L217.184 87.8135L216.837 89.7832L216.49 91.7529L383.285 121.105L383.631 119.135ZM216.837 89.7832L218.807 90.1298L221.496 74.8471L219.526 74.5005L217.557 74.1538L214.867 89.4366L216.837 89.7832ZM219.526 74.5005L219.207 76.4749L234.68 78.9746L234.999 77.0002L235.318 75.0258L219.845 72.5261L219.526 74.5005ZM334.516 62.5943L332.547 62.2476C331.768 66.6717 334.724 70.8894 339.148 71.668L339.494 69.6983L339.841 67.7285C337.593 67.3329 336.091 65.1892 336.486 62.9409L334.516 62.5943ZM339.494 69.6983L339.148 71.668C343.572 72.4465 347.79 69.4911 348.568 65.067L346.598 64.7204L344.629 64.3738C344.233 66.6222 342.089 68.1242 339.841 67.7285L339.494 69.6983ZM346.598 64.7204L348.568 65.067C349.347 60.6429 346.391 56.4252 341.967 55.6466L341.621 57.6163L341.274 59.5861C343.522 59.9817 345.024 62.1253 344.629 64.3738L346.598 64.7204ZM341.621 57.6163L341.967 55.6466C337.543 54.8681 333.325 57.8235 332.547 62.2476L334.516 62.5943L336.486 62.9409C336.882 60.6925 339.025 59.1904 341.274 59.5861L341.621 57.6163ZM291.488 76.227L289.518 75.8804C288.418 82.1315 292.595 88.0905 298.846 89.1905L299.192 87.2208L299.539 85.2511C295.464 84.5339 292.741 80.6486 293.458 76.5735L291.488 76.227ZM299.192 87.2208L298.846 89.1905C305.097 90.2902 311.055 86.1147 312.156 79.8641L310.186 79.5174L308.216 79.1707C307.499 83.2457 303.614 85.9679 299.539 85.251L299.192 87.2208ZM310.186 79.5174L312.156 79.8639C313.255 73.6134 309.08 67.6534 302.829 66.553L302.483 68.5227L302.136 70.4925C306.211 71.2098 308.933 75.0954 308.216 79.1708L310.186 79.5174ZM302.483 68.5227L302.829 66.553C296.578 65.453 290.618 69.6295 289.518 75.8803L291.488 76.227L293.458 76.5737C294.175 72.4983 298.061 69.7753 302.136 70.4925L302.483 68.5227Z" fill="black" mask="url(#path-8-inside-2_373_164)"/>
</g>
<mask id="path-10-inside-3_373_164" fill="white">
<path d="M185.812 129.031C187.031 127.813 188.969 127.813 190.188 129.031C191.656 130.469 225.5 164.312 225.5 184.375C225.5 205.062 208.687 221.875 188 221.875C167.313 221.875 150.5 205.062 150.5 184.375C150.5 164.313 184.344 130.469 185.812 129.031ZM166.125 184.375C164.399 184.375 163 185.773 163 187.5C163 197.839 171.411 206.25 181.75 206.25C183.476 206.25 184.875 204.852 184.875 203.125C184.875 201.398 183.476 200 181.75 200C174.857 200 169.25 194.394 169.25 187.5C169.25 185.773 167.851 184.375 166.125 184.375Z"/>
</mask>
<path d="M185.812 129.031C187.031 127.813 188.969 127.813 190.188 129.031C191.656 130.469 225.5 164.312 225.5 184.375C225.5 205.062 208.687 221.875 188 221.875C167.313 221.875 150.5 205.062 150.5 184.375C150.5 164.313 184.344 130.469 185.812 129.031ZM166.125 184.375C164.399 184.375 163 185.773 163 187.5C163 197.839 171.411 206.25 181.75 206.25C183.476 206.25 184.875 204.852 184.875 203.125C184.875 201.398 183.476 200 181.75 200C174.857 200 169.25 194.394 169.25 187.5C169.25 185.773 167.851 184.375 166.125 184.375Z" fill="white"/>
<path d="M185.812 129.031L187.211 130.461L187.219 130.453L187.227 130.445L185.812 129.031ZM190.188 129.031L188.773 130.445L188.781 130.453L188.789 130.461L190.188 129.031ZM225.5 184.375H227.5V184.375H225.5ZM150.5 184.375H148.5V184.375H150.5ZM185.812 129.031L187.227 130.445C187.664 130.008 188.336 130.008 188.773 130.445L190.188 129.031L191.602 127.617C189.602 125.617 186.398 125.617 184.398 127.617L185.812 129.031ZM190.188 129.031L188.789 130.461C189.487 131.144 198.246 139.894 206.814 150.944C211.099 156.47 215.301 162.526 218.423 168.404C221.569 174.328 223.5 179.854 223.5 184.375H225.5H227.5C227.5 178.865 225.2 172.637 221.955 166.528C218.686 160.372 214.335 154.116 209.975 148.493C201.254 137.247 192.357 128.356 191.586 127.602L190.188 129.031ZM225.5 184.375H223.5C223.5 203.958 207.583 219.875 188 219.875V221.875V223.875C209.792 223.875 227.5 206.167 227.5 184.375H225.5ZM188 221.875V219.875C168.417 219.875 152.5 203.958 152.5 184.375H150.5H148.5C148.5 206.167 166.208 223.875 188 223.875V221.875ZM150.5 184.375H152.5C152.5 179.854 154.431 174.328 157.577 168.404C160.699 162.526 164.901 156.47 169.186 150.944C177.754 139.894 186.513 131.144 187.211 130.461L185.812 129.031L184.414 127.602C183.643 128.356 174.746 137.247 166.025 148.493C161.665 154.116 157.314 160.372 154.045 166.528C150.8 172.637 148.5 178.865 148.5 184.375H150.5ZM166.125 184.375V182.375C163.295 182.375 161 184.668 161 187.5H163H165C165 186.878 165.503 186.375 166.125 186.375V184.375ZM163 187.5H161C161 198.944 170.306 208.25 181.75 208.25V206.25V204.25C172.515 204.25 165 196.735 165 187.5H163ZM181.75 206.25V208.25C184.58 208.25 186.875 205.957 186.875 203.125H184.875H182.875C182.875 203.747 182.372 204.25 181.75 204.25V206.25ZM184.875 203.125H186.875C186.875 200.293 184.58 198 181.75 198V200V202C182.372 202 182.875 202.503 182.875 203.125H184.875ZM181.75 200V198C175.962 198 171.25 193.289 171.25 187.5H169.25H167.25C167.25 195.499 173.753 202 181.75 202V200ZM169.25 187.5H171.25C171.25 184.668 168.955 182.375 166.125 182.375V184.375V186.375C166.747 186.375 167.25 186.878 167.25 187.5H169.25Z" fill="black" mask="url(#path-10-inside-3_373_164)"/>
<defs>
<clipPath id="clip0_373_164">
<rect width="103.669" height="225.198" fill="white" transform="translate(195 102.101) rotate(-80.0195)"/>
</clipPath>
</defs>
</svg>
